<?xml version="1.0" standalone="no"?>
<!DOCTYPE svg PUBLIC "-//W3C//DTD SVG 20010904//EN"
 "http://www.w3.org/TR/2001/REC-SVG-20010904/DTD/svg10.dtd">
<svg version="1.0" xmlns="http://www.w3.org/2000/svg"
 width="1024.000000pt" height="1024.000000pt" viewBox="0 0 1024.000000 1024.000000"
 preserveAspectRatio="xMidYMid meet">

<g transform="translate(0.000000,1024.000000) scale(0.100000,-0.100000)"
fill="#000000" stroke="none">
<path d="M5031 9452 c-69 -73 -80 -159 -52 -427 27 -253 27 -287 1 -310 -34
-31 -54 -99 -42 -145 l10 -40 -55 0 c-148 0 -467 -69 -676 -146 -253 -93 -547
-254 -756 -414 l-78 -59 -11 25 c-16 34 -70 64 -117 64 -37 0 -47 6 -111 73
-39 39 -127 140 -196 222 -201 241 -268 292 -370 283 -68 -7 -99 -39 -106
-107 -9 -102 66 -201 303 -397 66 -54 155 -129 198 -167 l77 -68 0 -56 c0 -51
3 -58 38 -93 l38 -38 -24 -29 c-53 -63 -191 -253 -236 -323 -197 -312 -365
-787 -392 -1107 l-6 -78 -38 3 c-44 4 -91 -17 -129 -59 l-26 -28 -180 25
c-287 39 -368 45 -467 34 -146 -17 -208 -64 -208 -158 0 -83 52 -131 164 -151
93 -17 174 -13 416 19 124 16 235 30 248 30 12 0 39 -17 61 -39 41 -41 88 -58
136 -49 24 5 25 3 25 -51 0 -94 38 -319 76 -456 105 -371 303 -750 519 -992
l55 -61 -35 -35 c-30 -30 -35 -42 -35 -80 l0 -44 -152 -135 c-84 -74 -198
-174 -253 -221 -129 -111 -181 -178 -199 -258 -7 -31 -16 -28 184 -55 l125
-16 33 38 c19 22 91 107 160 189 69 83 155 183 191 223 64 71 65 72 115 72 51
0 116 28 116 50 0 6 39 -22 88 -61 375 -305 856 -514 1312 -569 139 -16 160
-20 160 -28 0 -4 -4 -22 -9 -40 l-10 -32 204 0 204 0 -15 42 c-8 22 -13 42
-12 43 2 1 53 7 113 14 478 53 929 230 1295 507 52 40 109 86 127 102 28 26
34 28 44 15 22 -26 67 -43 112 -43 41 0 47 -4 118 -77 41 -43 130 -143 196
-223 67 -80 137 -162 155 -182 l33 -38 140 20 c77 11 146 20 153 20 19 0 14
42 -13 96 -29 59 -98 126 -378 372 l-197 174 0 44 c0 33 -6 51 -29 76 l-28 33
88 110 c289 361 498 872 542 1332 l11 123 39 0 c47 0 87 20 121 61 27 31 27
32 99 25 40 -4 150 -18 245 -32 247 -34 375 -30 461 14 52 27 73 62 73 119 0
105 -55 148 -208 161 -101 9 -179 4 -453 -32 l-193 -25 -24 28 c-30 36 -82 61
-126 61 l-34 0 -12 102 c-54 457 -265 945 -575 1331 -47 59 -80 107 -73 107 8
0 28 16 45 35 26 30 31 44 31 88 0 50 2 55 53 103 28 28 123 110 209 183 242
204 310 290 310 392 0 79 -42 119 -124 119 -94 0 -185 -75 -367 -305 -57 -71
-136 -163 -175 -202 -59 -62 -76 -73 -104 -73 -46 0 -95 -23 -119 -56 l-21
-28 -48 41 c-209 173 -533 348 -824 443 -215 71 -511 130 -653 130 l-38 0 7
35 c9 52 -3 101 -37 139 l-29 34 10 92 c6 51 17 149 25 219 28 237 15 334 -55
403 -34 34 -43 38 -90 38 -48 0 -56 -3 -89 -38z m412 -1237 c323 -50 611 -149
867 -295 645 -371 1079 -1042 1151 -1785 24 -244 -2 -583 -61 -815 -54 -212
-159 -457 -272 -639 -50 -80 -56 -85 -108 -103 -124 -43 -195 -51 -385 -45
-108 3 -228 14 -300 26 -152 25 -305 41 -404 41 -182 0 -417 -45 -696 -133
-327 -104 -435 -123 -650 -114 -183 8 -310 37 -735 170 -223 70 -335 91 -475
92 -66 0 -141 -3 -167 -7 l-47 -7 -46 72 c-62 96 -176 330 -215 441 -183 527
-186 1069 -8 1561 184 511 556 966 1010 1237 274 163 592 272 916 314 135 17
486 11 625 -11z m-2083 -3623 c0 -10 -7 -27 -16 -38 -11 -13 -14 -14 -11 -3 6
20 -29 44 -37 26 -5 -9 -7 -9 -12 1 -3 6 -10 12 -15 12 -5 0 -3 -11 3 -25 6
-14 15 -25 20 -25 5 0 6 5 3 10 -3 6 1 10 10 10 9 0 14 -4 11 -8 -2 -4 4 -14
16 -21 11 -7 18 -8 14 -3 -3 5 3 18 13 28 10 11 17 27 15 37 -1 9 2 17 7 17 5
0 9 -8 10 -17 0 -15 2 -15 9 2 6 14 9 16 10 5 2 -8 2 -19 1 -23 -1 -5 4 -5 10
-1 9 5 10 2 6 -9 -4 -11 -2 -14 9 -10 18 7 18 12 -1 33 -14 15 -11 16 47 8 74
-9 198 -38 198 -45 0 -3 -16 -3 -35 0 -20 3 -37 1 -41 -5 -5 -8 -1 -9 10 -5
10 4 15 3 11 -4 -4 -6 2 -8 18 -3 14 3 34 1 44 -5 15 -9 14 -10 -10 -7 -23 4
-26 2 -18 -8 12 -14 64 -19 56 -5 -3 4 -1 10 5 14 9 6 14 -7 11 -27 0 -5 3 -8
9 -8 5 0 10 6 10 13 1 6 8 0 16 -15 18 -35 23 -35 16 -3 -4 23 -9 27 -29 24
-3 0 -10 6 -15 15 -5 9 -18 16 -28 16 -11 0 -20 4 -20 9 0 4 18 3 40 -2 22 -6
40 -15 40 -19 0 -4 7 -4 17 -1 11 5 14 3 8 -6 -6 -10 -2 -11 16 -6 15 4 19 3
11 -3 -7 -5 -10 -16 -6 -26 4 -11 0 -22 -12 -31 -16 -12 -22 -12 -43 2 -18 12
-26 12 -35 2 -8 -9 -8 -10 1 -5 6 3 15 1 19 -5 5 -8 -1 -10 -19 -7 -15 3 -24
2 -22 -2 2 -4 7 -22 10 -40 3 -18 13 -39 22 -45 15 -11 15 -13 -5 -24 -17 -9
-22 -8 -27 9 -7 23 -25 26 -44 8 -11 -11 -13 -9 -8 10 3 12 1 20 -4 16 -14 -8
-11 -30 5 -44 8 -6 12 -18 9 -26 -6 -15 -4 -16 44 -18 30 -2 61 -16 34 -16 -7
0 -11 -9 -9 -21 4 -27 -28 -35 -41 -12 -7 14 -11 13 -21 -8 -12 -21 -12 -23 2
-11 11 9 18 10 23 2 3 -6 11 -8 16 -5 5 4 9 1 9 -5 0 -6 4 -9 9 -6 5 3 11 -5
13 -19 3 -15 0 -26 -9 -29 -9 -4 -13 0 -11 11 2 9 -3 17 -10 19 -7 1 -8 0 -2
-3 6 -3 4 -10 -4 -19 -18 -18 -30 -18 -23 0 3 7 0 13 -6 13 -32 -1 -48 4 -42
13 4 6 2 9 -3 8 -6 -2 -9 2 -8 7 0 6 6 9 12 9 15 -2 11 29 -4 34 -7 2 -12 -3
-12 -12 0 -15 -12 -21 -35 -16 -5 1 -1 -8 10 -20 11 -12 20 -25 20 -29 0 -3
10 -5 22 -3 16 2 21 -1 17 -12 -3 -8 -13 -12 -24 -9 -26 7 -33 -12 -11 -31 17
-16 19 -15 31 14 9 22 16 28 25 20 17 -14 61 -7 130 23 126 53 171 62 320 61
173 0 244 -18 538 -133 348 -136 423 -154 632 -155 139 -1 280 18 269 35 -3 5
0 9 5 9 6 0 11 -8 11 -17 0 -12 3 -14 11 -6 7 7 8 17 1 29 -5 11 -8 27 -7 36
2 10 -2 21 -7 25 -7 4 -9 -2 -6 -15 4 -12 2 -22 -3 -22 -5 0 -9 6 -9 13 -1 6
-9 -3 -19 -22 -13 -25 -19 -30 -24 -18 -6 17 -42 13 -54 -6 -4 -6 2 -8 15 -5
12 4 25 1 28 -4 5 -7 -4 -9 -25 -6 -17 2 -31 1 -31 -4 0 -4 -19 -7 -42 -7
l-43 2 40 7 c42 7 43 9 10 15 -11 2 -25 11 -31 19 -6 9 -18 16 -27 16 -9 0
-19 5 -23 11 -4 7 0 9 14 5 12 -4 30 -2 42 4 21 11 27 1 10 -16 -8 -8 -6 -15
5 -24 10 -8 15 -9 15 -1 0 6 -6 11 -12 11 -9 0 -9 3 -2 8 6 4 13 14 16 23 5
12 -1 15 -27 15 -18 0 -31 -4 -29 -8 6 -10 -10 -11 -19 -1 -4 3 -3 11 2 17 5
6 10 14 10 19 1 4 4 6 9 5 4 -2 6 -6 4 -11 -3 -9 19 -5 34 8 9 7 9 12 0 17 -7
5 -5 8 7 8 9 0 17 4 17 9 0 5 12 14 28 19 24 9 24 11 5 11 -12 1 -24 -3 -27
-8 -3 -5 -15 -7 -26 -4 -18 5 -20 2 -16 -21 3 -14 0 -26 -5 -26 -5 0 -9 7 -9
15 0 30 -30 6 -34 -27 -1 -4 -7 -13 -15 -20 -11 -11 -12 -9 -7 8 5 15 2 24
-10 28 -13 5 -14 9 -4 21 7 8 9 15 4 16 -37 4 148 29 256 35 184 9 390 -21
390 -58 0 -10 4 -18 10 -18 5 0 7 7 4 15 -4 11 0 15 16 15 19 0 20 -2 10 -15
-14 -17 0 -21 17 -4 8 8 27 7 69 -2 34 -8 125 -13 216 -14 133 0 172 -9 81
-17 -13 -1 -23 -5 -23 -9 0 -12 29 -19 35 -9 9 14 25 12 25 -3 0 -7 -10 -17
-22 -22 -18 -8 -27 -6 -40 8 -23 22 -36 22 -34 0 1 -12 -7 -17 -24 -18 -19 0
-25 5 -26 23 -1 13 5 22 13 22 11 0 11 -4 3 -20 -15 -27 -6 -25 13 3 14 22 14
23 -20 25 -26 2 -33 0 -27 -10 5 -7 7 -27 5 -44 -3 -43 11 -49 47 -19 16 13
33 21 37 17 5 -4 5 -1 1 6 -4 6 -3 12 2 12 6 0 13 -7 16 -15 5 -14 9 -14 35 0
39 20 47 19 30 -2 -13 -16 -12 -17 3 -4 10 7 15 18 11 24 -4 6 0 8 10 4 29
-11 19 8 -10 21 -22 9 -23 11 -6 8 15 -3 24 2 28 15 4 12 15 19 28 18 17 -1
18 -2 5 -6 -10 -2 -18 -9 -18 -14 0 -6 4 -8 9 -4 6 3 9 -4 8 -16 -1 -12 -21
-35 -49 -56 -27 -19 -46 -39 -43 -43 8 -12 -144 -101 -298 -175 -231 -111
-461 -177 -739 -211 -158 -20 -433 -15 -598 11 -305 47 -599 155 -885 328
-122 73 -148 93 -151 115 -2 9 -8 18 -14 20 -6 2 -17 10 -25 19 -8 8 -15 10
-15 5 0 -6 12 -20 28 -31 15 -11 22 -21 16 -21 -12 0 -162 125 -236 198 -26
25 -44 50 -41 56 3 6 2 8 -2 3 -9 -8 -95 70 -95 87 0 5 8 2 18 -7 15 -14 19
-14 19 -3 0 8 -5 14 -11 13 -6 -1 -10 4 -8 12 3 12 0 12 -11 2 -12 -10 -23 -2
-62 44 -26 30 -46 58 -43 60 2 2 21 -16 42 -40 20 -25 42 -43 47 -39 5 3 7 10
3 15 -3 5 -9 7 -14 4 -16 -10 -20 12 -5 25 11 9 12 17 4 31 -7 14 -6 19 3 19
8 1 5 6 -6 15 -14 11 -23 12 -33 4 -18 -16 -16 -29 5 -29 12 0 18 -7 17 -17 0
-10 -5 -18 -10 -18 -6 0 -9 6 -9 12 1 7 -2 11 -6 8 -4 -3 -13 2 -20 10 -7 8
-16 12 -20 10 -5 -3 -20 10 -34 28 -29 38 -34 56 -11 37 10 -9 15 -9 15 -1 0
6 -4 12 -10 12 -5 1 -14 3 -20 4 -5 1 -13 3 -17 4 -22 4 14 13 73 18 38 3 71
7 73 9 13 12 41 2 41 -14z m2612 -16 c-4 -6 -7 -14 -8 -18 -1 -5 -2 -11 -3
-14 0 -4 -9 0 -18 7 -16 13 -17 12 -4 -4 18 -23 7 -34 -14 -13 -9 9 -21 16
-27 16 -6 0 0 -9 13 -19 13 -11 21 -23 16 -27 -4 -4 -14 1 -22 12 -14 17 -14
17 -3 -9 7 -18 15 -24 21 -18 6 6 18 4 33 -5 20 -14 23 -14 32 1 8 15 10 15
15 2 3 -9 -1 -18 -9 -21 -8 -3 -14 -13 -14 -21 0 -9 -5 -13 -10 -10 -6 4 -8
10 -5 15 3 5 0 12 -6 16 -8 4 -9 3 -5 -4 4 -7 2 -12 -3 -12 -6 0 -11 8 -11 18
-1 10 -6 6 -14 -13 -9 -20 -10 -34 -3 -42 5 -7 7 -13 3 -13 -16 0 -21 3 -18
11 3 11 -15 12 -22 1 -3 -5 4 -16 15 -25 21 -19 33 -22 24 -7 -3 6 -1 10 5 10
7 0 10 7 6 15 -6 17 4 20 22 5 9 -7 9 -7 2 2 -5 7 -10 17 -10 23 1 5 10 -1 20
-14 17 -20 20 -20 20 -5 0 19 15 10 15 -9 1 -7 6 -11 12 -10 6 1 13 -11 17
-27 3 -18 12 -30 21 -30 8 0 15 -9 15 -21 0 -11 4 -18 8 -15 4 2 14 0 22 -6
12 -8 12 -9 -2 -4 -10 3 -18 1 -18 -4 0 -9 17 -14 47 -13 6 0 14 -6 17 -13 3
-8 1 -14 -4 -14 -5 0 -7 -7 -4 -15 4 -8 18 -15 32 -15 14 0 23 -3 19 -6 -3 -4
-36 -1 -72 6 -48 9 -65 16 -65 29 0 13 -2 13 -9 2 -7 -11 -20 -11 -79 3 -39 9
-83 16 -97 16 -16 0 -24 4 -20 11 4 6 13 8 21 5 8 -3 14 0 14 7 0 8 4 6 10 -3
9 -13 10 -13 10 0 0 8 -9 21 -20 28 -17 11 -21 10 -27 -5 -4 -10 -11 -21 -17
-25 -16 -11 -68 -10 -62 1 3 5 14 7 25 4 18 -4 51 20 51 38 0 15 -17 10 -24
-6 -3 -8 -11 -15 -17 -15 -8 0 -9 4 0 13 6 8 8 17 4 20 -3 4 0 7 7 7 7 0 10 3
7 6 -4 4 -13 2 -20 -5 -12 -9 -14 -4 -12 26 3 53 3 53 20 47 11 -5 12 -10 4
-26 -6 -11 -8 -23 -4 -26 9 -9 25 20 17 33 -3 5 2 4 12 -4 13 -11 14 -16 4
-23 -9 -7 -6 -8 10 -5 12 3 22 3 22 1 0 -3 -10 -9 -22 -14 -23 -9 -23 -9 -2
-9 12 -1 27 6 34 15 11 13 10 16 -7 20 -15 4 -19 12 -15 32 4 25 3 26 -10 8
-10 -13 -17 -15 -22 -8 -4 7 -2 12 4 12 7 0 10 6 7 14 -4 10 0 12 14 9 10 -3
19 -9 19 -12 0 -4 7 -8 15 -8 12 0 12 3 -3 17 -9 9 -28 15 -42 14 -13 -2 -30
2 -37 8 -9 7 -13 7 -13 0 0 -6 8 -15 17 -21 10 -5 15 -13 10 -17 -4 -4 -15 0
-25 9 -20 19 -37 23 -27 7 3 -5 2 -10 -3 -10 -6 0 -9 11 -8 24 1 20 4 22 15
13 11 -10 13 -9 9 3 -6 18 -33 20 -33 3 0 -6 -3 -14 -7 -18 -4 -4 -2 -15 5
-25 8 -15 15 -16 31 -9 21 10 21 10 2 -5 -11 -9 -23 -16 -28 -16 -4 0 -5 -7
-2 -15 9 -23 -23 -29 -52 -10 -15 9 -23 12 -20 6 4 -6 4 -16 1 -21 -8 -12 -45
6 -45 22 0 7 4 7 13 -1 10 -8 14 -7 14 4 0 7 -3 13 -6 13 -3 -1 -14 2 -24 7
-10 4 -21 5 -24 1 -4 -3 1 -6 10 -6 14 0 15 -5 7 -26 -13 -33 -13 -30 9 -51
19 -18 18 -18 -20 -19 -24 0 -38 4 -36 10 3 6 9 10 14 9 5 -1 9 9 9 23 0 13
-4 24 -8 24 -5 0 -8 -6 -6 -12 2 -7 -1 -14 -6 -16 -6 -1 -11 11 -12 28 -2 21
1 28 9 24 7 -4 8 -3 4 1 -12 14 -41 15 -49 2 -5 -8 -8 -5 -8 8 0 11 -4 16 -8
10 -10 -14 -32 -17 -32 -5 0 18 49 31 72 19 11 -6 22 -8 25 -6 2 3 -5 8 -16
12 -13 4 -18 12 -15 23 4 10 2 13 -3 7 -4 -6 -20 -16 -35 -22 -21 -10 -27 -9
-32 3 -3 8 -9 14 -13 13 -20 -3 -27 2 -13 11 9 6 10 10 3 10 -16 0 -26 -17
-13 -25 7 -4 6 -13 -1 -27 -9 -17 -8 -24 4 -33 9 -6 14 -20 12 -31 -2 -10 -4
-22 -4 -26 -1 -3 -9 -5 -18 -3 -10 2 -21 4 -25 4 -5 1 -9 9 -9 19 -1 16 -2 16
-6 -1 -2 -9 -9 -15 -14 -11 -5 3 -6 10 -3 16 4 6 1 9 -6 6 -15 -5 -27 -30 -13
-27 4 1 11 0 16 -1 4 -1 13 -3 20 -4 6 -1 11 -8 9 -15 -1 -7 2 -10 8 -6 17 10
11 -7 -7 -22 -16 -13 -15 -13 6 -3 18 10 25 9 32 -1 4 -7 5 -17 2 -22 -3 -5 0
-8 7 -5 7 2 14 16 14 30 1 15 -2 24 -8 21 -5 -3 -7 0 -4 8 5 15 56 21 64 7 4
-6 1 -15 -5 -21 -9 -9 -14 -9 -20 1 -6 10 -10 9 -14 -7 -3 -12 -1 -24 4 -27 5
-3 9 1 9 8 0 9 3 9 10 -2 7 -12 10 -12 10 -1 0 7 6 11 15 8 8 -4 17 -2 20 3 4
6 11 10 16 10 6 0 7 -4 4 -10 -9 -14 8 -13 23 2 9 9 12 9 12 1 0 -18 -11 -22
-73 -25 -31 -2 -57 -7 -57 -11 0 -5 -18 -6 -39 -2 -29 5 -41 3 -48 -8 -14 -25
-44 -25 -54 1 -6 15 -5 22 3 22 6 0 9 2 6 5 -8 8 -38 -6 -38 -17 0 -5 4 -7 9
-4 5 3 11 -3 14 -15 3 -12 0 -22 -9 -26 -21 -8 -32 6 -14 17 12 8 12 10 -4 10
-13 0 -17 -5 -13 -20 3 -13 -1 -21 -14 -25 -23 -8 -39 1 -39 21 0 8 4 13 9 9
5 -3 16 4 24 15 7 11 18 17 23 12 4 -4 3 0 -3 8 -6 8 -12 19 -12 24 -1 16 -30
15 -45 0 -19 -19 -25 -18 -21 4 1 9 0 11 -2 4 -3 -7 -9 -9 -15 -6 -6 4 -8 2
-4 -4 9 -15 -30 -25 -51 -13 -17 10 -15 12 17 15 8 0 16 11 18 24 2 13 8 20
14 16 6 -4 3 5 -8 19 -19 26 -36 31 -35 12 0 -6 -8 -19 -17 -30 -16 -19 -16
-19 1 -6 18 14 21 12 11 -14 -6 -14 -9 -14 -33 0 l-26 16 25 -21 25 -22 -25 3
c-31 5 -42 38 -22 62 8 9 12 20 8 24 -12 12 -43 10 -43 -3 0 -7 7 -10 15 -6
10 3 13 0 10 -9 -3 -8 -11 -14 -19 -14 -8 -1 -13 -6 -12 -13 4 -17 -16 -15
-23 2 -3 9 -12 12 -21 9 -14 -5 -13 -8 4 -14 15 -5 19 -15 18 -38 -1 -17 4
-32 12 -35 9 -4 11 -17 8 -41 -3 -23 -1 -33 6 -29 6 3 9 15 6 25 -3 11 0 19 5
19 6 0 4 8 -5 18 -19 21 -22 42 -6 42 5 0 8 -4 4 -9 -3 -5 5 -17 17 -25 21
-15 21 -18 9 -39 -13 -19 -12 -21 1 -10 22 19 30 3 13 -23 -11 -17 -12 -25 -3
-30 6 -4 8 -3 5 3 -4 6 0 16 8 23 18 15 20 40 3 41 -10 0 -10 2 0 6 6 2 12 9
12 14 0 5 -6 8 -12 7 -7 -2 -12 2 -11 9 2 7 -3 10 -11 7 -8 -3 -17 -1 -20 4
-12 20 34 19 73 -1 33 -17 38 -23 29 -35 -10 -12 -13 -11 -20 5 -7 15 -8 14
-4 -4 2 -13 1 -23 -4 -23 -13 0 -19 -39 -8 -47 6 -3 8 -1 5 4 -4 6 -1 16 7 22
10 9 16 8 26 -4 7 -9 10 -19 6 -22 -4 -4 -12 -1 -17 7 -9 13 -10 12 -6 -2 6
-17 -24 -33 -71 -37 -7 0 -11 -5 -7 -10 3 -5 1 -12 -4 -15 -5 -3 -11 1 -14 8
-3 8 -1 16 5 18 6 2 12 16 14 32 2 17 -1 26 -9 23 -7 -2 -12 -12 -12 -23 0
-22 -27 -37 -37 -20 -4 6 -8 -2 -8 -18 0 -25 -3 -28 -26 -22 -31 8 -29 -13 2
-29 11 -5 18 -17 16 -25 -3 -20 34 -60 55 -60 14 0 14 2 -3 14 -18 14 -18 15
-1 21 9 4 17 11 17 16 0 5 -9 4 -20 -3 -15 -10 -22 -10 -32 0 -6 6 -8 15 -4
19 4 4 11 1 16 -7 8 -13 10 -12 10 3 0 11 4 15 12 11 7 -4 8 -3 4 5 -5 7 -17
9 -29 5 -17 -5 -19 -4 -10 6 6 7 9 20 6 29 -3 13 -2 12 7 -2 6 -9 15 -15 21
-12 5 4 9 0 9 -7 1 -9 4 -9 13 3 30 38 318 146 453 170 117 20 314 7 501 -35
208 -46 326 -60 438 -53 78 6 185 27 250 51 45 17 -32 -38 -93 -66 -159 -73
-357 -82 -607 -29 -235 50 -267 54 -440 48 -124 -4 -192 -12 -302 -36 -137
-28 -191 -46 -179 -58 3 -4 0 -13 -7 -21 -9 -12 -9 -16 1 -19 13 -5 17 -24 5
-22 -30 5 -34 -3 -12 -22 19 -16 34 -20 71 -17 27 2 48 0 48 -4 0 -4 12 -9 28
-11 15 -3 -9 -3 -53 0 -129 7 -355 71 -355 101 0 10 3 13 8 7 9 -14 52 -17 52
-4 0 5 -4 9 -10 9 -13 0 -13 27 0 35 6 3 7 -1 4 -9 -3 -9 -1 -16 5 -16 16 0
14 30 -3 36 -7 3 -14 16 -15 30 -4 53 -5 63 -10 59 -2 -3 -11 1 -20 8 -14 11
-14 10 -2 -5 15 -21 2 -24 -18 -5 -11 10 -13 10 -7 0 10 -19 -5 -15 -34 6 -21
16 -22 21 -11 35 12 14 12 16 -2 11 -8 -4 -18 -2 -22 4 -4 8 -13 7 -27 -4 -15
-10 -25 -11 -34 -4 -13 11 -8 39 7 39 4 0 5 -8 2 -17 -6 -16 -5 -16 11 -4 19
16 13 26 -24 36 -14 3 -20 3 -13 -2 19 -13 -2 -37 -26 -30 -15 4 -24 -1 -32
-16 -8 -19 -8 -20 3 -7 14 16 58 15 58 -2 0 -5 -6 -8 -14 -5 -7 3 -22 -1 -33
-8 -11 -7 -24 -10 -30 -7 -18 12 -11 40 14 53 13 7 23 16 23 21 0 5 -4 6 -10
3 -5 -3 -10 -2 -10 3 0 10 189 26 198 17 3 -3 -9 -5 -27 -5 -25 0 -32 -4 -28
-14 3 -8 1 -17 -6 -19 -7 -2 -1 -2 11 0 15 2 21 0 17 -7 -4 -6 -1 -9 5 -8 18
4 21 -31 3 -41 -13 -7 -13 -9 -1 -14 8 -3 21 -1 29 4 12 7 12 9 0 9 -11 0 -11
3 3 13 17 13 13 52 -5 41 -5 -3 -19 2 -31 12 l-23 16 23 -5 c15 -4 30 1 43 14
10 10 27 19 38 19 10 0 62 11 116 25 54 13 101 22 105 20 5 -3 10 -2 12 2 6
15 268 94 290 89 13 -3 16 -3 8 1 -19 8 79 34 104 26 12 -3 16 -1 12 6 -4 6
-5 11 -2 11 2 0 37 7 76 15 153 32 279 43 290 24 5 -8 4 -19 -3 -27 -9 -11 -7
-17 8 -28 17 -12 17 -14 2 -15 -36 -3 -40 -4 -44 -16 -6 -17 2 -16 37 2 28 14
33 45 8 45 -7 0 -6 5 1 13 6 8 8 17 4 21 -13 12 16 23 62 23 29 0 42 -4 37
-11z m181 -3 c60 -5 67 -8 62 -24 -4 -11 -1 -19 5 -19 7 0 10 -7 7 -15 -4 -8
5 -24 21 -37 15 -13 27 -28 27 -35 0 -17 -15 -29 -15 -12 -1 9 -5 7 -13 -6
-11 -18 -20 -23 -52 -28 -5 -1 -9 3 -8 9 1 6 -4 11 -12 11 -8 0 -12 -4 -9 -9
4 -7 -9 -10 -32 -7 -3 0 -12 -8 -19 -18 -13 -17 -14 -17 -14 2 0 11 -4 36 -9
57 -8 32 -7 37 12 46 14 7 16 11 6 11 -9 1 -20 -3 -25 -8 -6 -6 -18 -4 -32 7
-22 17 -22 17 35 18 56 1 57 0 58 -28 1 -22 -2 -26 -12 -17 -11 9 -14 8 -14 0
0 -7 -4 -10 -9 -7 -7 5 -8 -13 -2 -46 0 -5 11 -7 24 -7 15 1 17 3 6 6 -22 6
-13 42 9 38 10 -2 19 -4 22 -4 3 -1 -2 -6 -10 -11 -12 -8 -10 -10 9 -10 13 0
21 3 18 7 -8 7 11 33 25 33 5 0 6 -4 3 -10 -3 -5 -1 -10 4 -10 6 0 11 -4 11
-10 0 -5 -5 -9 -11 -7 -6 1 -14 -5 -16 -13 -4 -12 -3 -12 5 -2 5 8 13 13 18
13 12 -1 12 31 -1 45 -5 6 -16 9 -22 7 -7 -3 -13 0 -13 6 0 6 4 11 10 11 6 0
5 10 -2 25 -11 24 -44 43 -55 31 -4 -3 1 -6 10 -6 18 0 23 -15 8 -25 -5 -3
-13 0 -17 6 -4 8 -9 7 -15 -2 -7 -11 -9 -11 -9 -1 0 9 -5 10 -18 3 -22 -11
-58 -8 -54 5 2 5 10 8 18 8 12 -2 12 1 3 12 -12 15 -32 15 -29 0 1 -5 -4 -12
-11 -17 -7 -4 -14 -15 -15 -24 -1 -9 0 -14 3 -11 9 9 64 -35 60 -48 -2 -6 1
-22 8 -36 7 -14 9 -34 5 -45 -5 -14 0 -28 16 -48 25 -30 30 -47 14 -47 -5 0
-9 4 -7 8 1 5 -15 26 -35 46 -38 38 -47 60 -29 71 6 3 8 -3 6 -15 -2 -11 1
-23 7 -26 6 -4 8 -2 4 4 -3 6 -2 14 4 17 7 4 8 11 2 18 -5 7 -8 24 -7 39 2 16
-2 29 -10 32 -10 3 -12 0 -8 -11 4 -9 2 -14 -3 -10 -6 3 -11 -4 -11 -16 -2
-18 0 -19 8 -7 9 13 10 13 6 0 -5 -21 -32 -19 -31 2 1 10 -4 14 -12 11 -19 -7
-17 6 4 25 10 10 16 16 14 16 -2 -1 -14 9 -28 23 -27 27 -27 66 0 44 10 -9 15
-8 19 3 4 9 -1 17 -11 19 -27 7 76 7 151 0z m901 -5 c-20 -34 -107 -138 -112
-134 -3 3 2 14 11 24 10 10 17 27 18 38 0 12 3 14 6 6 4 -10 9 -7 20 8 8 12
12 24 9 27 -3 4 -6 1 -6 -5 0 -7 -5 -11 -12 -9 -6 1 -17 -8 -23 -20 -7 -13
-14 -20 -17 -17 -3 3 -9 0 -14 -7 -5 -8 -3 -10 6 -4 8 5 11 3 8 -6 -3 -8 -11
-13 -17 -11 -9 2 -9 -3 -1 -18 10 -18 4 -29 -39 -79 -100 -115 -316 -305 -334
-294 -6 3 -7 1 -3 -5 6 -10 -131 -109 -139 -100 -5 5 82 70 108 80 19 8 18 35
-1 31 -5 -1 -8 7 -5 17 6 22 28 27 39 8 5 -8 2 -9 -10 -5 -10 4 -15 3 -11 -4
4 -5 16 -7 28 -3 25 8 75 44 60 44 -5 0 -14 -5 -20 -11 -6 -6 -19 -9 -29 -7
-15 4 -13 7 11 17 17 6 37 14 45 18 8 3 19 5 23 4 5 -1 51 41 104 92 67 66 92
97 83 102 -8 5 -11 4 -7 -2 9 -15 -29 -47 -45 -37 -7 4 -10 4 -6 -1 16 -17
-34 -60 -90 -77 -59 -18 -104 -24 -67 -8 13 6 15 9 5 9 -12 1 -12 3 -2 10 10
6 10 10 -1 20 -12 9 -16 5 -21 -24 -4 -19 -10 -35 -14 -35 -4 0 -37 -3 -74 -6
-52 -5 -66 -4 -65 7 1 31 -16 79 -29 79 -21 0 -17 16 4 17 12 1 18 -6 20 -25
1 -14 6 -30 11 -35 6 -6 8 6 6 28 -2 20 -11 42 -21 49 -12 9 -14 15 -5 20 6 4
9 12 6 17 -4 5 1 9 9 9 9 0 16 -4 16 -10 0 -16 27 -11 34 6 6 15 8 15 25 0 13
-11 21 -14 26 -7 9 16 -5 33 -21 27 -8 -3 -14 0 -14 7 0 8 -4 6 -10 -3 -6 -10
-10 -11 -10 -2 0 6 -7 12 -15 12 -8 0 -15 -4 -15 -10 0 -5 -9 -10 -21 -10 -14
0 -19 -5 -16 -15 8 -19 -5 -26 -23 -14 -10 6 -11 9 -2 9 6 0 12 6 12 14 0 8 6
17 13 19 9 4 9 6 -1 6 -7 1 -15 -6 -18 -14 -4 -8 -10 -15 -16 -15 -5 0 -6 4
-3 10 3 6 -1 7 -9 4 -19 -7 -21 7 -4 24 16 16 31 15 22 0 -5 -9 -3 -9 7 0 12
11 10 16 -10 33 -13 11 -21 23 -17 27 4 4 12 -1 17 -11 6 -9 15 -14 21 -11 6
4 8 3 5 -3 -4 -6 3 -19 16 -29 13 -12 17 -13 9 -3 -6 9 -9 18 -6 21 3 3 -9 16
-25 28 -32 22 -53 19 -49 -7 2 -9 -2 -18 -9 -20 -9 -3 -10 4 -4 25 5 16 5 36
-1 45 -6 12 -5 17 4 17 14 1 -31 29 -47 30 -6 0 -16 -10 -24 -22 -13 -22 -13
-22 5 -7 10 8 27 14 37 11 15 -3 16 -6 5 -20 -7 -9 -8 -13 -2 -9 7 4 15 0 18
-9 4 -11 2 -15 -8 -11 -18 7 -31 -24 -15 -34 9 -5 7 -13 -5 -30 -14 -21 -21
-19 -17 3 0 4 -6 5 -14 2 -8 -4 -15 -1 -15 5 0 6 9 11 20 11 17 0 18 4 10 24
-6 17 -5 26 3 29 7 3 2 4 -10 4 -17 -1 -20 -5 -12 -18 12 -23 11 -29 -2 -29
-5 0 -8 4 -5 8 3 5 -8 18 -24 30 -20 15 -27 27 -23 42 3 13 0 20 -8 20 -9 0
-10 3 -2 11 10 10 90 2 188 -17 11 -2 52 -7 90 -10 39 -3 77 -8 85 -11 25 -8
190 -9 190 0 0 4 18 7 41 7 24 0 38 -4 34 -10 -3 -6 1 -7 10 -4 9 4 13 9 10
12 -3 3 27 14 67 24 39 10 73 16 76 13 2 -2 11 2 19 10 18 18 27 19 17 3z
m-864 -49 c0 -13 -29 -43 -36 -36 -7 6 18 47 28 47 5 0 8 -5 8 -11z m-212 -25
c3 -16 1 -16 -7 -4 -6 8 -11 11 -11 7 0 -5 -5 -5 -10 -2 -13 8 -2 27 13 22 7
-2 13 -12 15 -23z m-2114 9 c3 -4 14 -7 24 -8 9 -1 49 -12 89 -24 51 -16 70
-26 66 -36 -6 -18 46 -33 56 -16 6 9 36 4 117 -18 60 -16 128 -32 152 -36 35
-6 41 -9 31 -21 -10 -12 -14 -12 -26 3 -13 17 -14 17 -9 1 3 -10 1 -20 -4 -23
-6 -4 -10 3 -10 14 0 14 -6 21 -17 20 -11 0 -13 -3 -5 -6 15 -6 16 -33 1 -33
-5 0 -8 3 -6 8 3 4 -2 13 -10 21 -13 12 -14 11 -8 -7 5 -18 3 -21 -12 -16 -13
4 -15 3 -4 -4 9 -7 10 -12 2 -16 -17 -11 -13 -29 4 -22 8 3 15 0 15 -7 0 -7
-9 -13 -20 -13 -11 0 -20 4 -20 8 0 4 -4 8 -10 8 -5 0 -7 -7 -3 -16 3 -8 12
-13 21 -9 8 3 22 0 30 -7 12 -10 14 -10 8 0 -4 6 -3 12 2 12 6 0 12 -7 16 -15
6 -18 8 -18 -69 -5 -69 11 -199 14 -270 6 -31 -3 -40 -3 -25 2 l25 8 -27 6
c-22 4 -28 1 -28 -12 0 -13 -17 -22 -62 -35 -35 -9 -67 -21 -73 -25 -5 -4 -20
-10 -31 -14 -18 -5 -23 -2 -27 21 -3 15 -1 34 5 41 7 8 7 12 -1 12 -8 0 -7 5
3 15 25 26 39 17 18 -13 l-20 -27 24 -12 c21 -10 23 -9 13 8 -7 14 -5 25 6 43
15 23 15 23 -12 24 -16 0 -31 1 -35 2 -5 1 -21 3 -38 4 -16 0 -30 6 -31 11 0
6 -5 16 -11 23 -8 9 -7 11 7 6 14 -6 16 -4 10 6 -5 9 -4 11 3 6 7 -4 12 -16
12 -26 0 -16 4 -18 23 -11 14 6 30 5 41 -1 22 -12 25 -9 15 22 -4 16 -7 19 -8
8 -1 -10 -6 -18 -12 -18 -6 0 -9 6 -6 13 2 6 -4 23 -15 36 -14 19 -16 26 -6
33 10 6 10 10 -2 18 -13 9 -13 10 0 11 57 4 71 7 85 19 9 8 14 22 12 31 -6 22
21 38 37 22z m2321 -42 c-3 -6 -11 -8 -17 -5 -6 4 -5 9 3 15 16 10 23 4 14
-10z m-701 -17 c3 -8 2 -12 -4 -9 -6 3 -10 2 -10 -4 0 -13 41 -41 52 -35 4 3
8 0 8 -5 0 -6 -4 -11 -10 -11 -5 0 -10 -6 -10 -13 0 -8 -7 -14 -15 -14 -10 0
-12 5 -6 15 9 16 -8 42 -28 42 -14 0 -14 6 -1 31 13 23 16 24 24 3z m-1394
-14 c0 -5 -4 -10 -9 -10 -6 0 -13 5 -16 10 -3 6 1 10 9 10 9 0 16 -4 16 -10z
m2284 -31 c-18 -20 -18 -21 1 -35 11 -8 19 -17 18 -19 -8 -14 -1 -26 13 -23
10 2 19 -2 21 -7 2 -6 -8 -11 -22 -11 -14 0 -25 6 -25 13 0 8 -7 16 -15 19 -8
4 -15 10 -15 16 0 5 5 6 12 2 7 -4 8 -3 4 5 -4 6 -12 8 -18 5 -6 -4 -14 0 -19
7 -6 9 -9 10 -9 2 0 -6 12 -21 26 -32 15 -12 21 -21 14 -21 -9 0 -10 -3 -1
-13 6 -8 7 -17 3 -22 -4 -4 3 -2 16 4 18 10 22 9 22 -4 0 -8 4 -15 10 -15 18
0 29 -34 15 -47 -11 -10 -17 -10 -28 2 -8 8 -18 11 -22 7 -5 -4 -5 -2 -1 5 3
6 15 10 26 8 26 -5 25 -1 -5 19 -14 9 -25 13 -24 9 1 -4 -2 -18 -6 -31 -7 -20
-9 -21 -24 -9 -9 8 -24 13 -33 12 -10 -2 -18 1 -18 6 0 5 6 9 14 9 8 0 18 5
22 12 5 8 2 9 -9 5 -9 -3 -19 -2 -22 3 -8 14 7 35 25 35 8 0 15 6 15 14 0 8
-7 17 -15 19 -13 5 -13 3 0 -14 14 -17 14 -18 -1 -6 -24 19 -12 50 30 77 42
26 52 24 25 -6z m-80 -24 c-10 -30 -13 -31 -37 -6 -12 13 -16 20 -8 16 10 -6
12 -2 7 13 -6 19 -5 20 18 9 19 -9 24 -17 20 -32z m-738 -17 c-19 -13 -36 -9
-30 7 4 8 11 12 17 8 6 -3 7 -1 3 5 -4 7 -4 18 0 24 6 9 10 5 14 -12 4 -14 2
-28 -4 -32z m229 3 c4 -47 -9 -62 -26 -30 -8 16 -8 23 1 29 6 4 11 10 11 14
-1 3 -1 14 -1 23 0 32 11 5 15 -36z m390 19 c4 -6 11 -8 16 -5 5 4 9 2 9 -3 0
-12 -30 -37 -30 -26 0 5 -5 1 -11 -8 -13 -23 -21 -23 -49 2 -13 11 -19 20 -15
20 5 0 17 -7 27 -17 20 -18 25 -4 6 15 -10 10 -10 15 2 22 20 13 37 12 45 0z
m51 1 c-4 -5 12 -18 34 -28 43 -20 47 -25 26 -42 -8 -7 -12 -21 -9 -32 4 -13
1 -19 -8 -17 -8 2 -13 -2 -12 -7 1 -6 -7 -12 -18 -12 -10 -1 -19 3 -19 8 0 6
4 8 9 5 5 -3 8 2 7 12 -1 12 5 16 19 14 11 -2 17 -1 13 3 -4 4 -3 16 3 26 6
13 6 19 -1 19 -5 0 -10 -7 -10 -17 0 -9 -3 -13 -6 -10 -4 3 -15 2 -25 -4 -15
-7 -19 -6 -19 6 0 13 12 19 33 16 4 0 7 4 7 9 0 24 -42 6 -53 -22 -6 -16 3
-23 26 -19 17 3 5 -10 -18 -19 -14 -5 -25 -15 -24 -22 0 -10 2 -10 6 0 5 14
23 16 23 3 0 -12 -29 -23 -42 -15 -5 3 -2 14 7 24 9 10 14 24 10 29 -8 14 -35
14 -35 0 0 -5 5 -7 10 -4 6 3 10 2 10 -4 0 -21 -18 -19 -28 3 -8 18 -6 25 9
34 10 7 22 12 26 12 5 0 2 -4 -5 -9 -11 -7 -11 -9 2 -14 12 -5 16 0 16 17 0
13 7 26 15 30 8 3 12 12 9 21 -3 8 -1 15 6 15 6 0 9 -4 6 -9z m268 -22 c-3 -5
-10 -7 -15 -3 -5 3 -7 10 -3 15 3 5 10 7 15 3 5 -3 7 -10 3 -15z m-832 0 c16
-8 23 -8 30 2 7 10 11 11 14 2 3 -7 11 -10 18 -7 13 5 31 -24 22 -34 -18 -17
-105 10 -114 36 -5 15 3 15 30 1z m-1112 -19 c29 0 39 -4 43 -20 3 -14 -1 -24
-14 -31 -11 -5 -17 -14 -14 -19 3 -5 -3 -7 -15 -5 -11 2 -22 0 -25 -6 -6 -8 9
-13 29 -10 4 1 5 -14 2 -34 -6 -28 -4 -35 9 -35 9 0 13 -4 10 -10 -3 -5 -3
-10 2 -11 4 0 16 -2 26 -4 9 -2 17 1 17 7 0 6 -7 7 -16 4 -12 -5 -15 -2 -9 11
4 10 8 25 9 33 2 25 28 40 50 28 13 -7 16 -7 12 1 -4 6 -2 11 3 11 6 0 11 -4
11 -10 0 -5 5 -10 11 -10 5 0 7 5 4 10 -3 6 -1 10 4 10 11 0 15 -19 12 -50 -2
-13 -1 -13 8 0 5 8 7 28 5 45 l-5 30 15 -33 c8 -18 22 -35 31 -38 8 -3 15 -11
15 -17 0 -7 -4 -7 -12 1 -7 7 -19 12 -27 11 -9 0 -5 -5 9 -11 14 -6 29 -10 34
-9 4 1 14 -4 22 -10 8 -7 17 -9 21 -5 3 3 1 6 -5 6 -7 0 -12 8 -11 18 0 9 3
12 5 5 3 -7 13 -9 21 -6 12 5 15 2 10 -10 -4 -10 -2 -17 5 -17 7 0 3 -7 -8
-15 -13 -11 -14 -14 -4 -13 8 2 15 -3 14 -9 -3 -37 -5 -42 -17 -37 -8 3 -26 0
-41 -6 -19 -7 -33 -7 -44 0 -14 9 -12 10 8 6 14 -3 19 -3 12 0 -9 4 -10 9 -2
19 8 9 8 15 0 20 -5 3 -10 -1 -10 -9 0 -9 -4 -16 -9 -16 -5 0 -15 -2 -23 -5
-7 -3 -19 -1 -27 4 -17 11 2 51 25 51 12 0 13 -4 4 -21 -7 -11 -9 -23 -6 -27
3 -3 6 0 6 7 0 7 4 10 9 7 5 -3 8 2 7 12 0 9 5 16 12 14 8 -1 11 2 7 8 -3 6
-11 8 -16 5 -5 -4 -12 1 -15 10 -6 13 -8 14 -15 3 -5 -7 -9 -8 -9 -2 0 6 -6
11 -13 11 -8 0 -14 -6 -14 -13 0 -7 4 -11 9 -8 11 7 10 -3 -2 -26 -10 -19 -50
-17 -50 2 0 6 7 8 15 4 22 -8 18 11 -6 37 -21 22 -21 22 -10 1 8 -17 7 -25 -3
-34 -11 -9 -24 -7 -58 8 -50 23 -195 72 -212 72 -11 0 -56 71 -56 88 0 5 11 8
24 7 13 -2 36 3 50 10 14 8 26 10 26 4 0 -5 -6 -9 -12 -10 -7 0 -3 -4 10 -10
13 -5 21 -13 17 -19 -4 -6 1 -7 12 -3 16 6 16 5 4 -10 -15 -19 -42 -23 -38 -6
1 6 -3 13 -8 15 -6 3 -11 -10 -12 -28 -1 -18 1 -26 4 -17 2 11 11 15 24 12 22
-6 25 -19 7 -26 -7 -2 -5 -3 4 -2 9 2 18 -1 20 -7 2 -5 11 -6 21 -3 12 5 15
14 11 30 -3 13 -1 26 5 29 6 4 12 2 12 -3 1 -6 2 -16 3 -23 0 -6 7 -13 14 -16
10 -3 10 4 -3 29 -11 24 -12 29 -2 16 13 -15 16 -15 27 -2 7 8 16 13 20 10 5
-3 5 5 2 17 -5 18 -7 19 -10 6 -2 -9 -12 -16 -23 -15 -11 1 -17 7 -15 14 6 16
-6 23 -46 28 -17 3 -33 7 -37 11 -3 4 16 4 43 0 27 -3 66 -6 86 -6z m618 -15
c-3 -33 -16 -33 -14 0 0 14 4 25 8 25 4 0 7 -11 6 -25z m388 0 c-14 -14 -16
-14 -16 -2 0 9 6 17 13 20 19 7 21 -1 3 -18z m-486 -13 c0 -11 -8 -18 -21 -18
-18 0 -19 1 -4 12 10 8 14 18 9 25 -4 8 -3 10 4 5 7 -4 12 -15 12 -24z m-616
-5 c-5 -8 -3 -8 7 1 7 6 17 12 21 12 14 0 9 -27 -8 -41 -8 -7 -13 -21 -11 -31
3 -11 0 -18 -10 -18 -8 0 -11 5 -8 10 3 6 1 10 -6 10 -7 0 -4 7 7 15 19 14 18
15 -6 36 -14 11 -19 18 -12 14 6 -3 12 -1 12 5 0 6 5 8 10 5 6 -4 7 -12 4 -18z
m1301 -15 c3 -10 -1 -11 -16 -7 -11 4 -43 7 -70 7 -27 -1 -48 2 -45 6 8 14
125 8 131 -6z m-481 -15 c-2 -11 -9 -25 -15 -31 -9 -8 -9 -6 0 11 6 12 7 24 2
27 -5 3 -14 -7 -21 -24 -12 -28 -13 -29 -37 -13 -17 11 -21 18 -12 24 7 4 17
5 24 3 6 -3 17 1 23 9 18 21 41 17 36 -6z m159 -24 c-7 -2 -19 -2 -25 0 -7 3
-2 5 12 5 14 0 19 -2 13 -5z m874 -35 c-6 -4 -14 -2 -18 4 -4 7 -8 6 -12 -3
-3 -8 -6 -5 -6 8 -1 19 1 20 23 10 16 -8 20 -14 13 -19z m-1713 3 c10 -15 -5
-40 -20 -34 -8 3 -14 9 -14 15 0 5 5 6 12 2 8 -5 9 -2 5 9 -7 18 8 24 17 8z
m623 -1 c13 0 13 -2 2 -16 -12 -15 -11 -16 11 -10 l25 7 -25 -15 c-29 -17 -44
-20 -35 -7 3 5 -4 12 -15 16 -11 3 -20 10 -20 14 0 14 14 22 28 16 7 -3 21 -5
29 -5z m1037 -5 c4 -12 -2 -15 -27 -14 -23 1 -26 3 -9 6 12 2 22 9 22 14 0 14
7 11 14 -6z m186 -9 c0 -8 -7 -16 -15 -20 -12 -4 -13 -2 -2 14 14 24 17 25 17
6z m-92 -13 c-16 -2 -40 -2 -55 0 -16 2 -3 4 27 4 30 0 43 -2 28 -4z m-2708
-63 c0 -5 -4 -10 -9 -10 -6 0 -13 5 -16 10 -3 6 1 10 9 10 9 0 16 -4 16 -10z
m1660 -4 c0 -2 -8 -10 -17 -17 -11 -10 -14 -10 -9 -1 4 6 3 12 -2 12 -5 0 -12
-9 -15 -20 -4 -17 -1 -19 26 -17 22 1 32 -2 32 -13 1 -24 16 -60 25 -60 4 0
10 -11 12 -23 4 -22 1 -24 -33 -23 -20 1 -35 4 -32 9 4 6 -12 10 -20 5 -2 -2
-12 4 -22 12 -11 9 -16 10 -11 3 4 -7 3 -13 -3 -13 -5 0 -12 4 -15 9 -8 13
-56 20 -62 9 -3 -5 -13 -6 -23 -3 -9 4 -21 8 -28 9 -7 1 -16 6 -20 10 -4 4 -1
6 7 4 9 -2 16 6 18 21 3 17 0 21 -10 15 -10 -6 -11 -5 -1 8 7 8 10 18 6 21 -3
4 1 7 11 7 13 0 16 -5 10 -22 -6 -21 -6 -21 10 -5 10 9 15 21 11 26 -3 5 23
16 57 24 64 16 98 20 98 13z m-287 -38 c-2 -5 -10 -8 -18 -8 -8 0 -16 3 -18 8
-3 4 5 7 18 7 13 0 21 -3 18 -7z m564 -84 c-3 -3 -12 -4 -19 -1 -8 3 -5 6 6 6
11 1 17 -2 13 -5z m733 1 c0 -2 -9 -9 -20 -15 -12 -6 -20 -7 -20 -1 0 5 8 12
18 14 9 3 18 5 20 6 1 0 2 -1 2 -4z"/>
<path d="M5306 7954 c-374 -74 -671 -322 -787 -657 l-28 -80 82 -56 c104 -71
244 -211 326 -326 73 -103 167 -292 204 -410 96 -306 97 -634 3 -977 -59 -215
-166 -486 -340 -865 -74 -164 -79 -153 57 -132 96 14 166 32 323 81 l132 41
51 156 c87 263 121 473 121 742 0 295 -49 506 -195 850 -131 305 -210 543
-236 712 -15 95 -7 278 16 361 36 134 93 245 172 331 29 32 39 39 27 20 -129
-213 -174 -354 -174 -550 0 -190 50 -366 228 -800 121 -296 138 -346 175 -515
39 -176 51 -303 44 -490 -11 -281 -59 -516 -162 -781 -5 -14 5 -13 76 7 135
40 275 64 395 71 l113 6 10 47 c47 221 36 553 -29 826 -70 298 -184 550 -416
925 -116 188 -177 309 -218 434 -119 358 -36 771 198 993 l55 52 -77 -1 c-42
0 -108 -7 -146 -15z m-258 -246 c28 -28 0 -88 -43 -88 -46 0 -58 40 -23 77 24
25 48 29 66 11z m-134 -164 c24 -23 20 -70 -6 -88 -29 -20 -47 -20 -70 1 -24
21 -23 58 2 83 24 24 53 26 74 4z m-82 -231 c29 -26 24 -87 -8 -112 -15 -12
-37 -21 -50 -21 -27 0 -64 43 -64 75 0 12 9 34 21 49 24 31 72 35 101 9z"/>
<path d="M3726 7270 c-48 -10 -90 -21 -93 -23 -2 -3 24 -25 59 -48 94 -64 240
-210 306 -308 152 -222 222 -441 222 -699 0 -349 -118 -634 -419 -1012 -114
-143 -206 -280 -260 -387 -22 -46 -41 -86 -41 -91 0 -8 309 -67 314 -60 20 23
171 231 236 325 223 320 351 582 412 837 18 76 22 120 22 271 -1 162 -3 190
-27 277 -69 258 -189 460 -389 653 -51 50 -111 105 -133 123 -67 54 -25 35 65
-29 133 -96 186 -146 277 -259 132 -164 223 -366 259 -571 22 -127 15 -358
-15 -479 -79 -317 -241 -629 -540 -1038 -45 -62 -84 -118 -87 -125 -3 -9 58
-32 198 -75 289 -87 394 -111 499 -112 l37 0 73 178 c40 97 105 257 145 355
176 429 230 633 241 912 18 480 -178 909 -541 1184 -116 88 -197 132 -312 170
-166 54 -346 65 -508 31z m681 -292 c48 -52 37 -108 -21 -108 -58 0 -109 83
-74 118 20 20 72 14 95 -10z m217 -235 c64 -64 32 -148 -47 -121 -54 20 -88
103 -55 136 21 21 73 14 102 -15z m151 -287 c26 -26 41 -82 31 -120 -18 -71
-85 -92 -134 -42 -23 23 -27 35 -27 87 0 52 3 64 24 80 32 26 77 24 106 -5z
m81 -390 c30 -30 34 -40 34 -85 0 -42 -5 -56 -29 -83 -25 -28 -36 -33 -74 -33
-110 0 -153 136 -66 210 45 37 92 34 135 -9z m-89 -377 c125 -47 114 -235 -17
-264 -66 -15 -150 60 -150 134 0 45 30 95 72 121 38 23 55 24 95 9z m-122
-409 c115 -71 64 -267 -69 -264 -56 1 -99 32 -121 86 -50 126 79 247 190 178z
m-207 -400 c44 -27 75 -96 66 -147 -4 -20 -22 -52 -40 -72 -30 -33 -37 -36
-88 -36 -47 0 -59 4 -85 29 -59 56 -64 137 -14 197 45 53 104 63 161 29z"/>
<path d="M5995 7008 c-71 -9 -194 -67 -284 -133 -72 -53 -110 -120 -120 -214
-13 -113 2 -172 72 -289 90 -150 106 -181 181 -346 110 -239 141 -350 182
-646 26 -184 24 -486 -3 -602 -13 -59 -17 -88 -9 -88 35 -1 241 -32 354 -54
73 -14 150 -26 172 -26 l39 0 19 63 c35 112 45 206 39 379 -4 140 -9 179 -35
278 -68 254 -159 423 -388 715 -128 164 -169 224 -216 320 -71 140 -91 265
-64 387 19 85 60 178 101 226 15 18 26 34 24 36 -2 1 -31 -1 -64 -6z m-121
-180 c23 -38 -36 -77 -64 -43 -10 12 -10 21 -1 41 13 29 47 30 65 2z m-53
-182 c26 -56 -18 -103 -66 -72 -27 18 -34 63 -13 84 22 22 67 15 79 -12z m41
-223 c25 -22 23 -75 -3 -99 -19 -17 -23 -17 -47 -3 -56 31 -53 119 4 119 15 0
36 -7 46 -17z m143 -258 c44 -43 25 -115 -30 -115 -29 0 -65 43 -65 78 0 31
26 62 52 62 10 0 30 -11 43 -25z m189 -276 c29 -35 33 -74 10 -107 -35 -50
-124 1 -124 72 0 70 67 91 114 35z m125 -293 c54 -28 68 -110 26 -151 -65 -66
-175 10 -145 101 20 59 65 77 119 50z m95 -374 c10 -9 25 -32 33 -50 35 -85
-58 -174 -138 -132 -48 26 -64 118 -28 164 38 48 91 55 133 18z m-43 -371 c52
-53 29 -141 -37 -141 -34 0 -84 50 -84 85 0 35 17 64 43 75 36 14 47 12 78
-19z"/>
<path d="M3580 6728 c60 -130 74 -283 40 -427 -28 -116 -81 -224 -190 -387
-101 -151 -144 -236 -183 -359 -76 -242 -58 -565 44 -786 l32 -69 53 0 c38 0
54 4 54 13 0 25 52 142 97 218 24 41 82 127 127 190 71 99 85 126 99 185 8 38
50 144 92 234 132 281 173 439 162 618 -7 116 -40 229 -94 322 -67 115 -249
278 -340 305 -22 6 -22 5 7 -57z m204 -284 c19 -19 20 -36 4 -52 -26 -26 -78
-7 -78 28 0 38 46 53 74 24z m14 -190 c49 -34 16 -119 -45 -112 -57 6 -64 90
-9 116 28 14 28 14 54 -4z m-56 -251 c45 -41 3 -133 -61 -133 -35 0 -71 39
-71 77 0 57 89 95 132 56z m-131 -262 c20 -20 29 -39 29 -61 0 -40 -47 -90
-85 -90 -38 0 -85 50 -85 90 0 40 47 90 85 90 16 0 38 -12 56 -29z m-102 -287
c63 -52 25 -154 -58 -154 -11 0 -33 12 -50 26 -25 21 -31 33 -31 65 0 80 77
115 139 63z m-28 -303 c46 -46 37 -106 -21 -136 -82 -43 -151 78 -79 139 40
34 64 33 100 -3z"/>
<path d="M3320 4596 c0 -2 7 -9 15 -16 12 -10 15 -10 15 4 0 9 -7 16 -15 16
-8 0 -15 -2 -15 -4z"/>
<path d="M3473 4575 c-10 -10 -9 -16 4 -27 13 -10 15 -10 9 0 -4 7 -2 19 4 27
16 19 -1 19 -17 0z"/>
<path d="M3533 4558 c2 -12 10 -24 16 -26 10 -3 11 2 6 19 -7 21 -6 22 9 10
14 -12 16 -12 10 3 -3 9 -15 16 -25 16 -14 0 -18 -6 -16 -22z"/>
<path d="M3237 4557 c3 -5 0 -13 -6 -17 -9 -5 -8 -10 2 -19 11 -9 17 -8 27 4
11 13 10 14 -5 9 -15 -6 -16 -4 -7 13 9 15 8 20 -3 20 -8 0 -11 -5 -8 -10z"/>
<path d="M3370 4549 c0 -5 5 -7 10 -4 6 3 10 8 10 11 0 2 -4 4 -10 4 -5 0 -10
-5 -10 -11z"/>
<path d="M3381 4531 c-10 -6 -9 -10 5 -15 20 -8 25 -4 16 11 -4 7 -13 9 -21 4z"/>
<path d="M3420 4521 c0 -5 5 -13 10 -16 6 -3 10 -2 10 4 0 5 -4 13 -10 16 -5
3 -10 2 -10 -4z"/>
<path d="M3490 4526 c0 -2 8 -10 18 -17 15 -13 16 -12 3 4 -13 16 -21 21 -21
13z"/>
<path d="M3529 4521 c6 -4 9 -15 5 -24 -3 -9 -11 -14 -17 -10 -5 3 -7 1 -3 -5
3 -6 2 -13 -3 -17 -6 -3 -8 -12 -5 -19 4 -10 -2 -12 -20 -9 -20 4 -25 1 -23
-15 0 -11 5 -18 9 -16 5 3 6 10 2 15 -5 9 24 6 64 -7 8 -2 12 1 9 8 -2 7 -10
12 -16 11 -6 -2 -11 2 -11 7 0 6 6 10 13 10 8 0 7 4 -3 10 -8 5 -13 10 -10 11
38 7 59 10 80 11 14 0 19 3 13 5 -9 3 -10 10 -3 24 7 13 7 19 0 19 -5 0 -10
-6 -10 -12 0 -14 -50 -41 -59 -32 -9 9 31 34 43 27 6 -3 8 -3 4 2 -4 4 -22 9
-39 10 -18 2 -26 0 -20 -4z"/>
<path d="M3625 4510 c-3 -6 -1 -9 6 -8 7 2 13 -2 14 -9 0 -7 6 -18 13 -24 10
-10 12 -10 12 2 0 22 -36 53 -45 39z"/>
<path d="M3361 4494 c6 -7 9 -19 6 -26 -2 -7 0 -21 5 -30 6 -13 5 -18 -4 -18
-8 -1 -5 -7 6 -15 11 -8 27 -15 35 -15 11 1 9 5 -7 13 -12 7 -20 16 -16 20 4
4 14 1 23 -6 14 -11 14 -10 2 6 -13 17 -13 18 12 21 17 1 17 44 0 50 -11 4
-11 1 -2 -15 6 -11 9 -22 7 -25 -7 -7 -48 27 -48 40 0 7 -7 13 -15 13 -11 0
-12 -4 -4 -13z m32 -39 c4 -8 1 -17 -5 -21 -7 -4 -8 -3 -4 4 4 7 2 12 -4 12
-6 0 -8 5 -5 10 8 14 12 13 18 -5z"/>
<path d="M3790 4491 c0 -6 4 -13 10 -16 6 -3 7 1 4 9 -7 18 -14 21 -14 7z"/>
<path d="M3692 4476 c7 -8 15 -12 17 -11 5 6 -10 25 -20 25 -5 0 -4 -6 3 -14z"/>
<path d="M3454 4463 c10 -11 37 -12 30 -2 -3 5 -12 9 -21 9 -9 0 -13 -3 -9 -7z"/>
<path d="M3559 4459 c-10 -6 -10 -11 0 -23 7 -8 10 -20 7 -25 -4 -5 -2 -13 4
-16 6 -4 10 -3 9 2 -3 20 2 34 11 28 6 -3 10 -1 10 4 0 6 5 11 11 11 5 0 7 -5
3 -11 -5 -8 3 -10 25 -7 17 2 31 1 31 -3 0 -5 7 -6 16 -2 12 4 11 8 -8 18 -14
7 -28 8 -35 3 -7 -5 -14 -5 -18 2 -3 5 -1 10 4 10 6 0 11 4 11 8 0 5 -7 9 -15
9 -8 0 -12 -4 -10 -8 3 -4 -2 -10 -11 -13 -11 -4 -15 -2 -11 7 6 15 -15 18
-34 6z m21 -15 c0 -8 -5 -12 -10 -9 -6 4 -8 11 -5 16 9 14 15 11 15 -7z"/>
<path d="M3614 4394 c10 -7 13 -15 7 -18 -5 -4 -12 -2 -16 4 -4 6 -12 7 -18 3
-7 -4 -18 -8 -26 -10 -8 -1 -18 -8 -22 -15 -7 -10 -9 -9 -9 4 0 9 5 18 12 20
7 3 5 7 -6 11 -11 5 -15 3 -10 -5 5 -8 2 -9 -9 -5 -10 3 -17 2 -17 -3 0 -6 4
-10 9 -10 16 0 20 -28 4 -34 -10 -4 -13 -2 -10 7 6 16 -50 50 -59 36 -3 -6 -3
-13 0 -16 3 -4 6 -1 6 6 0 7 5 9 10 6 8 -5 7 -11 -1 -21 -8 -10 -7 -17 5 -30
15 -14 19 -14 51 5 20 11 37 16 40 10 4 -5 1 -9 -5 -9 -6 0 -8 -5 -5 -10 4 -6
10 -8 15 -5 4 3 10 2 13 -2 2 -5 2 -3 1 4 -2 6 2 14 9 17 9 3 8 5 -1 5 -10 1
-10 6 -2 22 9 17 14 18 26 8 13 -10 17 -10 24 1 5 8 6 18 3 24 -4 5 3 7 15 4
12 -4 20 -2 17 2 -3 5 -19 8 -37 8 -27 -1 -29 -3 -14 -14z m-44 -34 c0 -5 -5
-10 -11 -10 -5 0 -7 5 -4 10 3 6 8 10 11 10 2 0 4 -4 4 -10z m-80 -15 c0 -9
-6 -12 -15 -9 -8 4 -12 10 -9 15 8 14 24 10 24 -6z"/>
<path d="M3680 4380 c-12 -8 -10 -10 8 -10 13 0 20 4 17 10 -7 12 -6 12 -25 0z"/>
<path d="M3400 4361 c0 -6 5 -11 11 -11 8 0 7 -6 -2 -17 -13 -15 -12 -15 8 -2
12 7 21 14 20 14 -1 0 -10 7 -19 14 -12 9 -18 10 -18 2z"/>
<path d="M3608 4343 c7 -3 16 -2 19 1 4 3 -2 6 -13 5 -11 0 -14 -3 -6 -6z"/>
<path d="M3633 4310 c-1 -11 2 -20 7 -20 4 0 7 7 6 15 -3 23 -12 26 -13 5z"/>
<path d="M3500 4305 c-11 -13 -10 -15 1 -10 8 2 21 0 29 -5 13 -9 13 -11 0
-19 -8 -5 -18 -7 -24 -4 -5 3 -6 1 -2 -5 5 -8 13 -9 25 -2 19 9 37 41 23 39
-20 -3 -33 2 -27 11 10 16 -11 12 -25 -5z"/>
<path d="M3566 4281 c-4 -6 -4 -11 0 -11 4 0 -3 -11 -17 -26 -17 -18 -19 -23
-6 -18 9 3 17 11 17 18 0 6 5 4 11 -4 9 -13 10 -13 6 2 -3 9 -1 19 6 21 9 3 9
8 1 17 -8 8 -14 9 -18 1z"/>
<path d="M3604 4271 c0 -11 5 -17 13 -14 10 4 11 9 2 19 -15 18 -15 18 -15 -5z"/>
<path d="M3651 4263 c0 -10 3 -13 5 -7 6 13 44 7 44 -7 0 -5 5 -9 12 -9 18 0
-12 26 -39 35 -18 5 -23 2 -22 -12z"/>
<path d="M3476 4255 c-3 -8 -1 -15 4 -15 6 0 10 7 10 15 0 8 -2 15 -4 15 -2 0
-6 -7 -10 -15z"/>
<path d="M3535 4190 c10 -11 20 -20 23 -20 3 0 -3 9 -13 20 -10 11 -20 20 -23
20 -3 0 3 -9 13 -20z"/>
<path d="M3665 4200 c-16 -7 -17 -9 -3 -9 9 -1 20 4 23 9 7 11 7 11 -20 0z"/>
<path d="M3870 4154 c-52 -8 -106 -18 -120 -22 -14 -5 -32 -8 -40 -7 -9 2 -17
-5 -17 -16 -1 -11 3 -19 8 -19 6 0 7 5 4 10 -7 12 8 14 19 3 4 -5 20 -8 34 -8
15 0 27 -4 27 -10 0 -5 4 -16 9 -24 8 -12 11 -11 23 4 7 11 13 24 13 29 -1 6
-7 0 -16 -14 -8 -14 -14 -18 -13 -10 3 37 -1 42 -31 38 -17 -3 -33 -2 -35 2
-6 10 209 44 235 37 11 -3 23 -1 26 4 3 5 12 9 20 9 8 0 12 -5 9 -10 -4 -6
-12 -7 -18 -4 -7 4 -9 4 -5 -1 4 -4 3 -14 -3 -21 -8 -10 -4 -13 20 -12 16 1
32 7 35 15 4 9 2 11 -7 6 -24 -15 -43 -12 -22 4 15 11 37 14 95 10 92 -6 206
-36 188 -50 -10 -6 -8 -7 4 -4 25 9 73 -8 70 -24 -3 -10 -1 -11 8 -3 13 13 80
-3 80 -18 0 -5 -4 -7 -9 -3 -5 3 -13 0 -17 -7 -4 -7 -4 -10 1 -6 4 4 14 3 22
-4 8 -6 13 -7 12 -2 -3 20 2 23 30 13 23 -8 28 -15 23 -31 -3 -15 -1 -19 7
-14 6 4 9 12 6 17 -4 5 -1 9 4 9 6 0 11 -4 11 -10 0 -5 6 -7 13 -4 8 3 13 -5
15 -20 1 -20 -2 -24 -16 -20 -14 5 -14 4 -2 -4 8 -6 17 -9 21 -6 4 2 10 -3 13
-12 11 -28 6 -38 -9 -18 -13 16 -14 16 -9 1 5 -13 2 -16 -11 -11 -13 5 -16 3
-13 -7 3 -8 -1 -22 -10 -31 -19 -23 -9 -24 13 -2 22 23 27 13 10 -19 -11 -22
-11 -29 -1 -40 7 -6 11 -19 8 -27 -3 -8 -2 -12 2 -9 4 4 9 18 12 33 3 21 1 24
-12 19 -12 -4 -15 -3 -10 5 4 7 15 12 24 12 10 0 13 3 7 8 -16 11 -16 52 -1
46 7 -3 19 3 27 12 9 12 10 15 2 10 -12 -6 -18 5 -14 27 0 4 -3 7 -8 7 -5 0
-11 9 -14 21 -4 15 -2 19 10 15 8 -3 17 -6 19 -6 3 0 3 -3 1 -7 -3 -5 5 -9 16
-9 22 -2 138 -44 147 -54 6 -6 11 -7 117 -28 71 -14 83 -19 88 -39 5 -20 11
-23 35 -20 28 5 50 -16 31 -28 -5 -3 -7 -14 -4 -25 3 -11 3 -25 0 -32 -7 -21
-7 -28 0 -25 5 1 7 5 6 10 -4 11 15 9 22 -3 3 -5 3 -10 -2 -10 -4 0 -9 -11 -9
-25 -2 -19 1 -23 10 -15 7 5 17 6 21 2 5 -4 5 -1 1 5 -4 7 -9 23 -11 35 -3 12
-10 25 -16 29 -7 4 -9 14 -6 23 4 9 1 16 -6 16 -8 0 -7 4 3 9 16 11 33 4 25
-10 -4 -5 5 -8 19 -7 19 2 22 5 14 15 -6 7 -14 10 -19 7 -5 -3 -9 0 -9 5 0 6
-7 11 -16 11 -13 0 -14 3 -5 14 9 10 8 15 -3 19 -7 3 -17 2 -22 -3 -5 -5 -20
-2 -34 6 -23 14 -20 15 40 8 36 -3 84 -6 108 -6 23 0 45 -4 48 -9 7 -12 34
-11 34 1 0 5 -7 7 -15 4 -8 -4 -15 -1 -15 5 0 6 15 11 34 11 18 0 48 3 66 7
24 4 31 3 26 -5 -10 -17 4 -15 18 2 6 7 50 25 98 40 48 14 90 32 94 38 5 8 1
9 -12 4 -130 -53 -252 -76 -399 -76 -182 0 -316 33 -555 137 -219 96 -439 154
-569 152 -31 -1 -99 -7 -151 -15z"/>
<path d="M5625 4150 c4 -6 -5 -7 -24 -4 -24 5 -31 2 -41 -17 -10 -22 -10 -22
3 -6 18 22 26 22 54 -5 13 -12 23 -17 23 -11 0 6 -6 14 -12 16 -10 4 -10 6 -1
6 7 1 17 -8 23 -19 8 -15 17 -19 33 -14 22 6 22 6 2 -11 l-20 -17 20 8 c33 12
87 12 75 0 -16 -16 -12 -45 7 -42 9 2 19 8 21 14 2 7 8 12 13 12 6 0 6 -8 -1
-19 -7 -14 -7 -22 0 -26 6 -4 7 -11 4 -17 -4 -7 -2 -8 4 -4 7 4 12 2 12 -3 0
-6 -4 -11 -10 -11 -5 0 -13 -1 -17 -2 -5 -2 -8 6 -8 16 0 11 -7 21 -15 23 -13
4 -13 3 0 -6 8 -5 11 -13 7 -17 -3 -4 -12 -3 -19 3 -21 15 -37 10 -59 -22 -19
-28 -20 -28 -14 -5 4 14 12 31 17 38 8 9 3 12 -18 11 -19 0 -24 -3 -14 -7 13
-6 14 -13 4 -41 -7 -23 -13 -30 -17 -20 -3 8 -4 2 -2 -13 2 -16 -1 -28 -7 -28
-6 0 -8 -3 -5 -6 9 -9 38 16 31 27 -3 5 1 9 10 9 8 0 16 6 19 13 2 6 8 8 13 4
5 -5 0 -15 -11 -24 -20 -15 -20 -15 3 -8 12 3 22 2 22 -4 0 -5 -8 -12 -17 -14
-17 -4 -17 -5 0 -6 12 -1 16 -5 11 -13 -6 -10 -5 -10 7 -1 12 10 17 6 28 -19
11 -25 11 -32 0 -38 -7 -5 -17 -6 -23 -3 -5 3 -6 1 -2 -5 4 -7 2 -12 -5 -12
-7 0 -9 -3 -6 -7 4 -3 1 -13 -7 -22 -14 -15 -16 -20 -16 -38 0 -5 -4 -3 -8 3
-4 6 -13 4 -24 -7 -14 -15 -14 -18 -2 -23 9 -3 12 -1 9 4 -3 6 1 10 9 10 8 0
18 -5 21 -11 5 -6 12 -4 22 8 14 17 14 17 8 -2 -4 -11 -8 -26 -8 -32 0 -9 -4
-9 -12 -3 -13 11 -25 3 -25 -14 0 -6 5 -4 10 4 8 12 10 12 10 1 0 -8 -8 -20
-17 -27 -15 -11 -11 -11 25 -2 24 6 39 14 33 17 -10 7 -8 41 4 60 3 5 -4 12
-15 16 -11 4 -17 11 -14 17 4 6 10 6 17 -1 17 -17 31 -13 17 4 -7 9 -19 14
-27 11 -9 -4 -9 2 3 20 10 14 23 23 31 20 9 -4 11 -1 7 5 -4 7 -1 10 7 7 14
-5 19 -25 11 -41 -2 -5 -13 -1 -23 9 -17 16 -19 16 -19 1 0 -10 7 -17 15 -17
8 0 15 -6 15 -12 0 -7 5 -5 11 5 11 19 29 23 29 6 0 -6 7 -17 16 -26 8 -9 12
-23 9 -32 -4 -10 -3 -12 3 -6 6 6 8 25 5 44 -4 24 -8 29 -15 20 -7 -11 -9 -9
-7 6 3 46 -1 56 -20 50 -11 -3 -22 -1 -26 5 -3 5 1 10 9 10 8 0 18 5 21 10 4
7 -2 9 -19 4 -21 -5 -26 -3 -26 12 0 16 2 17 10 4 7 -10 10 -11 10 -2 0 7 -12
17 -26 22 -23 9 -26 30 -3 30 6 0 8 -4 5 -8 -3 -5 1 -9 9 -9 11 0 12 4 3 14
-6 8 -19 11 -31 7 -14 -4 -18 -2 -15 7 3 8 11 14 19 14 8 0 19 3 24 6 6 3 16
4 23 3 6 -1 17 -2 22 -3 6 0 10 -5 10 -10 0 -6 -9 -8 -20 -6 -11 2 -20 -1 -20
-7 0 -5 6 -8 13 -5 7 3 19 -4 25 -14 7 -10 20 -19 29 -19 9 0 13 3 9 8 -4 4
-12 7 -17 7 -5 0 -9 3 -9 8 0 4 0 12 0 18 0 5 4 7 10 4 6 -3 7 1 4 9 -3 9 -10
14 -14 11 -5 -3 -11 -1 -15 5 -3 5 2 10 12 11 11 0 13 3 5 6 -6 2 -10 9 -6 14
3 5 0 8 -6 7 -16 -4 -22 33 -8 50 6 7 7 12 2 11 -22 -4 -35 2 -28 13 4 7 3 8
-4 4 -7 -4 -12 -2 -12 3 0 6 -7 11 -16 11 -8 0 -13 4 -10 8 2 4 -4 8 -14 8
-10 0 -16 -4 -14 -8 3 -4 0 -8 -6 -8 -6 0 -15 10 -20 23 -6 16 -9 17 -9 5 -2
-30 -21 -30 -39 1 -9 17 -21 31 -25 31 -5 0 -5 -4 -2 -10z m159 -95 c-4 -8
-11 -12 -16 -9 -6 4 -5 10 3 15 19 12 19 11 13 -6z m-44 -87 c0 -19 -16 -5
-17 14 -2 18 0 20 7 8 5 -8 10 -18 10 -22z m33 0 c-5 -10 -33 10 -33 23 0 5 9
4 19 -3 11 -7 17 -16 14 -20z m54 -164 c-3 -3 -12 -4 -19 -1 -8 3 -5 6 6 6 11
1 17 -2 13 -5z m-107 -64 c0 -5 -5 -10 -11 -10 -5 0 -7 5 -4 10 3 6 8 10 11
10 2 0 4 -4 4 -10z"/>
<path d="M5663 4153 c9 -2 23 -2 30 0 6 3 -1 5 -18 5 -16 0 -22 -2 -12 -5z"/>
<path d="M5717 4147 c-3 -9 1 -14 14 -13 22 1 27 20 6 24 -8 2 -17 -3 -20 -11z"/>
<path d="M5515 4140 c17 -4 22 -8 12 -9 -10 0 -15 -5 -12 -11 3 -5 1 -10 -5
-10 -8 0 -8 -6 0 -20 6 -11 16 -19 23 -17 7 1 11 -4 9 -11 -2 -9 3 -10 16 -3
19 10 45 1 41 -15 -5 -16 12 -54 23 -54 6 0 3 -9 -7 -20 -10 -11 -15 -23 -12
-27 4 -3 7 0 7 7 0 12 2 12 13 1 10 -11 10 -14 0 -18 -7 -3 -13 -12 -13 -21 0
-14 -2 -15 -10 -2 -5 8 -20 15 -34 16 -14 0 -23 -3 -20 -7 2 -4 0 -10 -5 -14
-6 -3 -8 -19 -6 -35 4 -30 -8 -49 -20 -31 -8 14 -46 9 -41 -5 3 -7 -2 -18 -10
-24 -10 -9 -14 -9 -14 -1 0 6 5 11 10 11 7 0 7 6 0 20 -9 17 -8 20 9 20 27 0
51 10 51 21 0 6 -10 4 -22 -2 -17 -9 -24 -8 -34 5 -7 10 -15 13 -18 7 -3 -5
-1 -11 5 -13 6 -2 0 -12 -12 -23 -17 -15 -21 -16 -17 -4 4 9 2 22 -3 30 -6 10
-9 8 -9 -11 0 -18 -3 -21 -9 -11 -6 9 -11 10 -15 2 -4 -5 7 -17 25 -26 29 -15
30 -17 13 -30 -11 -7 -22 -11 -26 -9 -5 3 -8 -2 -8 -10 0 -9 -8 -16 -17 -16
-14 0 -15 2 -5 9 11 6 10 10 -5 16 -27 11 -102 14 -109 4 -3 -5 3 -6 12 -2 12
4 15 3 10 -5 -4 -7 -2 -12 4 -12 6 0 8 -4 5 -10 -3 -5 -2 -10 4 -10 6 0 8 -6
5 -14 -3 -8 -1 -17 5 -21 6 -3 9 0 5 8 -6 17 26 18 38 2 4 -6 8 -2 8 8 0 14
-5 17 -19 12 -14 -4 -23 0 -30 14 -6 11 -11 22 -11 24 0 10 65 -1 66 -12 1 -6
3 -23 4 -38 2 -21 4 -23 7 -9 6 22 52 65 71 66 7 0 11 -4 8 -9 -3 -5 8 -7 24
-6 17 1 33 -1 36 -6 3 -5 -4 -9 -15 -9 -11 0 -23 -5 -27 -12 -4 -7 -3 -8 4 -4
7 4 12 3 12 -3 0 -5 -5 -13 -10 -16 -6 -4 -8 -11 -5 -16 4 -5 1 -9 -4 -9 -11
0 -14 10 -12 45 l1 20 -9 -20 c-5 -11 -5 -27 0 -37 13 -24 11 -31 -6 -24 -8 3
-15 1 -15 -4 0 -5 9 -11 20 -15 11 -3 19 -11 17 -18 -1 -6 6 -13 16 -15 9 -2
17 2 17 8 0 6 -4 8 -10 5 -5 -3 -10 -3 -11 2 0 4 -2 16 -4 26 -2 9 5 22 16 27
17 10 23 6 20 -12 0 -4 7 -4 16 -1 11 4 14 3 9 -5 -4 -7 -2 -12 4 -12 6 0 9
-4 5 -10 -3 -5 -12 -7 -21 -3 -8 3 -14 2 -13 -3 4 -23 -3 -33 -23 -37 l-23 -4
23 -2 c12 0 25 6 28 14 4 8 10 15 15 15 11 0 7 -22 -6 -33 -5 -4 13 -5 40 -1
28 4 52 8 54 11 10 8 9 33 -1 33 -6 0 -8 -7 -4 -15 3 -8 1 -15 -4 -15 -5 0
-13 12 -16 27 -5 19 -2 30 11 39 10 7 22 11 27 8 4 -3 11 3 15 13 3 10 12 22
20 26 7 4 13 13 13 20 0 7 -4 6 -10 -3 -5 -8 -10 -10 -10 -5 0 6 -5 3 -10 -5
-5 -8 -10 -10 -10 -3 0 6 -9 9 -20 6 -19 -5 -23 -22 -8 -33 4 -3 -1 -11 -11
-17 -14 -9 -20 -7 -30 9 -11 18 -11 20 1 15 8 -3 15 1 15 8 0 8 -7 11 -15 7
-11 -4 -13 -1 -7 8 5 9 4 11 -3 6 -7 -4 -12 -1 -12 9 0 10 5 13 13 9 6 -4 9
-3 4 1 -4 5 -15 10 -25 11 -40 6 -57 11 -54 17 1 4 2 9 2 12 0 2 12 0 26 -5
15 -6 23 -6 19 -1 -11 18 16 22 47 7 39 -20 43 -20 24 0 -17 16 -12 39 5 28 5
-3 7 -10 3 -15 -3 -5 -1 -8 5 -7 5 2 17 -6 26 -17 16 -20 16 -20 6 0 -5 11
-18 28 -29 38 -18 16 -21 16 -35 2 -17 -17 -32 -20 -22 -5 3 6 0 10 -7 10 -10
0 -10 2 1 9 9 6 10 11 2 15 -16 10 -14 26 3 20 7 -3 16 3 20 12 6 15 9 15 24
-7 9 -13 16 -27 15 -31 -1 -3 4 -11 11 -18 11 -8 16 -8 22 1 5 8 3 9 -6 4 -8
-5 -11 -3 -8 6 6 19 54 18 49 -2 -2 -8 -4 -21 -5 -29 -1 -9 -5 -20 -9 -27 -4
-6 -1 -16 7 -22 10 -8 16 -8 26 3 6 9 9 19 6 25 -3 5 -3 11 1 14 5 2 2 2 -4 1
-9 -2 -12 7 -9 29 4 40 -3 64 -14 46 -9 -13 -60 -22 -60 -11 0 11 24 76 33 90
5 7 4 19 -2 26 -6 7 -8 16 -4 20 4 4 0 4 -10 0 -9 -3 -14 -11 -10 -17 3 -6 1
-7 -6 -3 -9 6 -9 11 1 24 11 14 10 15 -7 8 -11 -4 -16 -3 -11 1 10 11 66 10
66 0 0 -5 10 -7 23 -6 12 2 27 0 32 -3 6 -4 11 3 12 15 0 12 -1 16 -4 9 -3 -6
-9 -9 -14 -6 -6 3 -5 12 3 22 12 14 10 14 -11 3 -19 -10 -21 -15 -10 -22 11
-7 11 -9 -3 -9 -9 0 -20 5 -24 11 -3 6 -15 9 -25 6 -11 -3 -19 -2 -19 3 0 4
-8 7 -17 6 -11 0 -19 7 -19 19 -1 11 -2 26 -3 34 -1 8 -10 3 -23 -14 -18 -24
-22 -25 -30 -10 -6 10 -6 21 1 29 14 17 4 26 -28 25 -25 -1 -25 -2 4 -9z m69
-44 c-3 -8 -13 -17 -22 -21 -13 -5 -13 -2 3 15 21 24 26 25 19 6z m66 -105 c0
-5 -8 -15 -17 -22 -16 -12 -17 -12 -6 2 7 9 10 19 6 22 -3 4 -1 7 5 7 7 0 12
-4 12 -9z m-200 -161 c0 -5 -2 -10 -4 -10 -3 0 -8 5 -11 10 -3 6 -1 10 4 10 6
0 11 -4 11 -10z m65 0 c3 -5 2 -10 -4 -10 -5 0 -13 5 -16 10 -3 6 -2 10 4 10
5 0 13 -4 16 -10z m179 -41 c-3 -5 -10 -7 -15 -3 -5 3 -7 10 -3 15 3 5 10 7
15 3 5 -3 7 -10 3 -15z m-164 -28 c0 -5 3 -17 7 -27 5 -13 3 -15 -7 -9 -9 5
-11 4 -6 -3 4 -7 14 -12 21 -12 9 0 12 -6 8 -17 -4 -10 -2 -14 4 -10 6 4 13
-6 15 -24 3 -21 1 -28 -8 -25 -7 3 -15 0 -18 -7 -3 -7 -3 3 0 21 4 28 -1 38
-26 60 -32 28 -38 47 -17 55 19 8 27 8 27 -2z m100 -37 c0 -8 -4 -12 -10 -9
-5 3 -10 10 -10 16 0 5 5 9 10 9 6 0 10 -7 10 -16z"/>
<path d="M5773 4135 c0 -9 13 -25 29 -36 24 -18 27 -18 21 -3 -5 13 -3 15 8 9
12 -7 11 -6 -1 9 -8 11 -16 14 -18 7 -6 -17 -20 -13 -18 5 0 9 -4 19 -10 21
-6 2 -11 -4 -11 -12z"/>
<path d="M3933 4134 c4 -7 0 -17 -8 -24 -11 -9 -15 -9 -15 -1 0 7 -4 10 -10 6
-14 -9 0 -34 16 -28 8 3 14 0 14 -6 0 -6 6 -11 14 -11 8 0 17 -15 20 -33 5
-25 11 -33 26 -33 21 1 29 -16 9 -23 -7 -2 -9 1 -4 9 6 9 3 9 -14 1 -16 -9
-21 -9 -21 1 0 8 -3 9 -8 3 -14 -20 -57 -14 -68 10 -13 27 -1 55 24 55 15 -1
14 -3 -4 -18 -24 -21 -12 -40 24 -37 30 2 34 8 24 35 -7 20 -10 21 -15 7 -4
-10 -12 -17 -18 -17 -8 0 -8 4 0 14 10 12 8 17 -9 26 -36 19 -59 20 -69 1 -12
-22 -11 -82 1 -75 5 3 7 18 4 32 -3 15 -2 34 4 42 7 11 10 11 10 2 0 -7 5 -10
12 -6 7 4 8 3 4 -5 -4 -6 -12 -9 -17 -5 -12 7 0 -49 13 -57 11 -7 -41 -31 -53
-23 -5 3 -6 10 -3 16 4 6 0 14 -7 19 -11 7 -11 9 -1 9 7 0 10 5 6 11 -4 8 -9
7 -15 -2 -4 -8 -3 -19 3 -26 7 -9 7 -13 0 -13 -6 0 -16 9 -22 19 -13 25 -13
34 0 26 7 -4 7 2 1 18 -6 14 -7 28 -3 32 4 4 -2 6 -13 3 -11 -2 -21 -12 -23
-22 -3 -11 0 -16 7 -11 6 3 8 11 5 17 -4 6 -2 8 4 4 7 -4 8 -17 2 -36 -8 -28
-6 -31 58 -71 37 -23 78 -49 92 -58 19 -12 22 -13 15 -2 -6 11 -4 13 8 8 18
-7 41 17 34 35 -4 9 -6 7 -6 -4 -1 -11 -8 -15 -26 -13 -14 1 -25 -2 -25 -7 0
-16 -44 21 -46 39 -2 16 -1 16 12 -1 8 -12 14 -15 14 -7 0 11 3 11 16 0 13
-10 17 -10 24 0 6 11 9 11 13 0 4 -10 6 -9 6 3 1 13 8 16 36 12 20 -2 35 0 35
6 0 5 9 10 20 10 11 0 20 -4 20 -10 0 -5 -6 -7 -12 -5 -8 3 -14 -4 -14 -20 -1
-14 2 -25 8 -25 5 0 6 -4 3 -10 -8 -13 26 0 43 16 6 7 12 17 12 23 0 13 21 10
33 -4 5 -6 6 -2 3 8 -3 11 -2 16 4 12 6 -3 10 -13 10 -21 0 -8 5 -14 11 -14 8
0 7 -5 -1 -15 -11 -13 -10 -18 6 -31 18 -15 18 -15 1 -10 -10 3 -27 1 -38 -4
-13 -8 -19 -7 -19 0 0 6 7 13 15 16 11 5 12 10 4 26 -10 19 -12 19 -40 -8 -16
-15 -29 -33 -29 -38 0 -7 3 -8 8 -1 12 17 32 16 32 -1 0 -11 6 -14 21 -9 14 5
19 3 15 -3 -3 -6 -2 -13 3 -17 6 -3 8 4 6 16 -3 15 0 19 11 15 9 -3 25 1 37 9
12 8 16 15 9 15 -7 0 -10 4 -7 10 3 6 -1 7 -10 4 -11 -5 -14 -2 -9 10 3 9 11
13 17 9 5 -3 7 -2 4 4 -4 6 0 19 8 29 14 18 15 16 11 -18 -2 -29 0 -35 12 -30
11 4 13 2 6 -9 -4 -8 -9 -21 -9 -29 0 -8 -11 -17 -25 -21 -18 -5 -20 -7 -6 -8
12 -1 16 -6 12 -17 -4 -9 -2 -13 5 -8 7 4 10 1 7 -7 -3 -8 -10 -14 -15 -14 -6
0 -14 -3 -17 -7 -3 -5 -3 -6 0 -3 4 2 15 0 25 -5 14 -8 21 -5 32 11 11 14 17
17 22 9 6 -9 9 -9 15 1 7 10 12 10 27 -2 17 -13 17 -13 4 4 -9 11 -21 15 -34
11 -12 -4 -17 -2 -13 4 3 5 -1 12 -9 15 -9 4 -12 1 -8 -9 3 -10 0 -12 -10 -8
-17 6 -15 40 2 36 9 -2 9 3 2 16 -7 13 -7 22 0 29 8 8 7 13 0 17 -8 5 -8 13 0
28 8 16 8 19 -1 13 -9 -5 -10 -2 -6 13 5 15 1 24 -13 31 -25 14 -31 14 -31 1
0 -5 3 -9 8 -9 18 3 32 -2 32 -12 0 -5 -5 -7 -11 -3 -6 3 -15 1 -19 -6 -6 -9
-10 -6 -15 9 -6 21 -8 21 -25 6 -10 -9 -20 -13 -23 -8 -6 10 39 53 48 45 3 -3
5 0 5 6 0 6 -12 10 -27 8 -22 -1 -27 -6 -25 -21 3 -16 1 -18 -9 -7 -8 7 -14
22 -14 34 0 15 -8 24 -25 28 -14 3 -20 8 -15 12 11 6 68 -15 61 -23 -3 -3 10
-5 29 -5 19 0 32 3 29 6 -6 5 -12 7 -41 9 -16 1 -16 3 -3 12 11 8 9 9 -10 3
-22 -6 -23 -5 -12 9 8 9 10 22 6 28 -5 9 -10 6 -15 -9 -5 -12 -14 -22 -21 -22
-9 0 -9 3 0 12 7 7 12 16 12 21 0 6 -10 -1 -23 -15 -12 -13 -28 -23 -35 -22
-7 1 -8 0 -3 -2 6 -3 7 -12 4 -20 -4 -11 -8 -12 -19 -3 -8 7 -17 9 -21 6 -3
-4 -12 -2 -20 4 -7 6 -13 8 -13 4 0 -4 -7 -2 -15 5 -12 10 -15 10 -15 -1 0
-10 -3 -10 -12 -1 -10 10 -10 15 2 22 13 8 13 11 1 22 -8 7 -11 8 -8 2z m67
-64 c3 -1 11 -3 19 -4 20 -2 25 -22 6 -29 -8 -4 -15 -2 -15 3 0 6 -5 10 -11
10 -8 0 -8 -4 1 -14 6 -8 19 -12 27 -9 11 4 14 2 9 -5 -8 -14 33 -7 48 8 8 8
6 9 -8 4 -15 -6 -17 -4 -11 6 5 9 4 11 -3 6 -7 -4 -12 -2 -12 3 0 6 5 11 11
11 5 0 7 4 4 10 -4 6 2 7 17 1 23 -9 26 -20 13 -56 -5 -15 -4 -16 3 -6 5 7 15
11 20 7 16 -10 2 -37 -17 -34 -10 2 -15 -3 -13 -13 3 -20 -23 -43 -38 -34 -14
9 -2 27 13 19 7 -4 9 -4 5 0 -4 5 -3 19 2 32 7 19 6 22 -6 17 -25 -9 -92 26
-96 52 -4 21 5 25 32 15z m160 -40 c0 -5 -2 -10 -4 -10 -3 0 -8 5 -11 10 -3 6
-1 10 4 10 6 0 11 -4 11 -10z m-215 -10 c-3 -5 -11 -10 -16 -10 -6 0 -7 5 -4
10 3 6 11 10 16 10 6 0 7 -4 4 -10z m230 -39 c-3 -5 -1 -12 5 -16 6 -4 8 -11
4 -16 -3 -6 -12 -3 -19 8 -14 19 -11 33 6 33 6 0 8 -4 4 -9z m-57 -68 c-2 -9
-11 -17 -21 -19 -18 -2 -18 -2 0 16 23 24 25 24 21 3z m114 -115 c-7 -7 -12
-8 -12 -2 0 6 3 14 7 17 3 4 9 5 12 2 2 -3 -1 -11 -7 -17z"/>
<path d="M5830 4134 c0 -3 7 -12 15 -20 16 -16 21 -39 7 -30 -5 3 -9 0 -10 -7
0 -7 -3 -22 -6 -35 -3 -13 -1 -20 5 -17 5 4 6 11 3 17 -4 6 -1 9 6 6 15 -5 23
-38 9 -38 -5 0 -4 -10 2 -22 7 -13 12 -24 11 -25 -1 -2 1 -10 5 -19 5 -13 7
-13 14 -2 13 19 11 36 -2 18 -9 -12 -10 -11 -6 8 3 12 2 20 -3 17 -4 -3 -7 6
-6 19 0 13 4 22 9 19 4 -2 7 1 7 6 0 6 -6 11 -12 11 -9 0 -8 4 2 10 11 7 11
10 2 10 -7 0 -10 5 -6 12 5 8 10 7 18 -4 10 -13 13 -13 24 -2 7 8 18 14 25 14
8 -1 7 -5 -3 -13 -16 -12 -16 -47 0 -47 5 0 7 6 4 13 -3 9 2 13 16 12 24 -2
36 -13 43 -40 4 -16 5 -15 6 5 1 24 4 26 45 24 24 -1 50 -5 58 -9 10 -6 11 -5
1 6 -17 18 -16 32 1 26 8 -3 17 0 19 7 4 10 -1 12 -14 9 -11 -3 -19 0 -19 7 0
7 -6 10 -14 7 -7 -3 -18 -1 -24 5 -6 6 -16 7 -28 0 -11 -5 -34 -10 -53 -10
-25 -1 -34 4 -38 19 -3 11 -11 18 -19 15 -7 -3 -15 0 -17 7 -3 7 -4 2 -4 -9 1
-14 6 -20 14 -17 7 3 13 1 13 -5 0 -5 -6 -12 -14 -15 -17 -7 -39 16 -28 28 4
5 -1 5 -11 2 -15 -6 -17 -3 -12 16 5 17 4 19 -4 7 -7 -10 -11 -11 -11 -2 0 6
-4 12 -10 12 -5 0 -10 -3 -10 -6z m41 -57 c-6 -8 -7 -18 -3 -22 4 -5 1 -5 -6
-1 -10 6 -10 11 -1 22 6 8 14 14 16 14 3 0 0 -6 -6 -13z m194 3 c4 -6 10 -8
15 -5 5 3 11 1 15 -5 3 -5 1 -10 -5 -10 -6 0 -9 -4 -6 -8 3 -5 -17 -9 -44 -9
-28 0 -50 5 -50 10 0 5 -9 7 -20 4 -11 -3 -20 -1 -20 3 0 5 19 8 42 7 25 -1
43 3 46 11 5 15 19 16 27 2z"/>
<path d="M6036 4062 c-2 -4 4 -9 15 -9 11 -1 17 2 14 8 -7 11 -22 12 -29 1z"/>
<path d="M3656 4111 c-15 -17 -15 -19 1 -32 15 -11 16 -11 6 1 -10 11 -9 17 4
32 9 10 14 18 11 18 -3 0 -12 -8 -22 -19z"/>
<path d="M3836 4122 c-3 -5 1 -9 9 -9 8 0 12 4 9 9 -3 4 -7 8 -9 8 -2 0 -6 -4
-9 -8z"/>
<path d="M4171 4109 c12 -23 21 -25 12 -2 -5 13 -2 15 11 10 10 -4 22 -7 27
-7 5 0 9 -5 9 -11 0 -5 -5 -7 -12 -3 -7 4 -8 3 -4 -5 6 -9 11 -9 22 0 10 9 14
9 14 0 0 -6 -10 -16 -22 -21 -19 -7 -19 -9 -5 -9 10 -1 15 -6 12 -12 -4 -6
-14 -8 -24 -5 -9 4 -6 -2 8 -14 13 -11 26 -18 30 -15 3 3 -1 11 -9 16 -12 8
-10 10 7 6 13 -3 26 -1 29 4 3 5 -2 9 -10 9 -23 0 -28 16 -9 31 15 12 16 12
10 -3 -3 -10 -2 -18 3 -18 6 0 10 3 11 8 0 4 2 14 4 24 3 16 -29 27 -97 34
-24 2 -26 0 -17 -17z"/>
<path d="M5438 4105 c-6 -14 -16 -25 -22 -25 -6 0 -3 -5 6 -11 11 -6 15 -16
11 -26 -4 -11 -3 -14 5 -9 7 4 12 2 12 -3 0 -6 -4 -11 -10 -11 -5 0 -10 -7
-10 -15 0 -8 5 -15 11 -15 5 0 7 5 4 10 -3 6 -1 10 4 10 6 0 11 7 11 16 0 8 5
12 11 8 8 -4 8 0 0 15 -7 11 -16 21 -21 21 -6 0 -10 7 -10 16 0 14 2 15 18 3
15 -13 16 -12 3 4 -9 11 -10 17 -2 17 6 0 11 5 11 10 0 19 -21 10 -32 -15z"/>
<path d="M5485 4120 c3 -5 2 -10 -3 -10 -5 0 -7 -13 -4 -30 2 -16 9 -28 16
-27 6 1 10 -6 10 -15 -1 -10 2 -15 7 -12 5 3 9 -3 9 -13 0 -15 2 -16 10 -3 5
8 5 17 1 20 -15 10 -40 71 -34 86 3 7 0 14 -7 14 -6 0 -8 -4 -5 -10z"/>
<path d="M5325 4110 c-3 -5 -1 -10 4 -10 6 0 11 5 11 10 0 6 -2 10 -4 10 -3 0
-8 -4 -11 -10z"/>
<path d="M5607 4093 c-4 -3 -7 -11 -7 -17 0 -6 5 -5 12 2 6 6 9 14 7 17 -3 3
-9 2 -12 -2z"/>
<path d="M5636 4091 c-4 -5 -2 -12 3 -15 5 -4 12 -2 15 3 4 5 2 12 -3 15 -5 4
-12 2 -15 -3z"/>
<path d="M3705 4081 c-6 -11 9 -23 19 -14 9 9 7 23 -3 23 -6 0 -12 -4 -16 -9z"/>
<path d="M4333 4069 c9 -6 14 -15 11 -21 -4 -7 -2 -8 4 -4 16 9 3 36 -17 36
-14 -1 -14 -2 2 -11z"/>
<path d="M6150 4076 c0 -2 11 -6 25 -8 14 -3 25 -1 25 3 0 5 -11 9 -25 9 -14
0 -25 -2 -25 -4z"/>
<path d="M6225 4049 c5 -16 4 -19 -5 -14 -9 5 -10 2 -5 -14 5 -16 3 -20 -9
-15 -8 3 -12 12 -10 19 3 7 -1 17 -8 21 -23 15 -46 14 -52 -1 -3 -9 0 -15 9
-15 9 0 15 -9 14 -22 0 -22 -1 -22 -9 -3 -7 15 -9 16 -9 4 -1 -9 6 -22 14 -29
9 -7 13 -20 10 -28 -4 -12 -3 -13 10 -2 8 7 15 9 15 4 0 -5 6 -2 13 6 14 19
39 20 45 2 2 -7 -2 -10 -11 -6 -11 4 -19 -5 -27 -31 -7 -20 -9 -39 -6 -42 3
-4 6 1 6 10 0 10 5 17 11 17 5 0 8 4 5 8 -2 4 4 13 14 20 16 10 22 8 35 -10
12 -18 15 -19 15 -6 0 9 -6 19 -12 21 -10 4 -10 6 -1 6 7 1 3 11 -10 24 -16
17 -26 21 -36 13 -11 -9 -12 -6 -6 14 4 14 13 29 19 33 8 6 7 10 -2 14 -6 2
-10 9 -6 14 3 5 0 9 -6 9 -7 0 -9 -8 -5 -21z m-39 -25 c-3 -7 3 -18 12 -24 12
-8 14 -13 4 -16 -6 -3 -9 -10 -6 -16 3 -5 -3 -4 -15 4 -12 7 -17 14 -12 16 6
2 7 12 1 27 -9 24 -3 38 12 29 5 -3 7 -12 4 -20z"/>
<path d="M4390 4025 c-6 -8 -10 -19 -8 -26 2 -6 9 0 16 15 13 29 10 33 -8 11z"/>
<path d="M5905 4030 c3 -5 8 -10 11 -10 2 0 4 5 4 10 0 6 -5 10 -11 10 -5 0
-7 -4 -4 -10z"/>
<path d="M4297 4023 c-4 -3 -7 -13 -7 -21 0 -18 13 -7 16 13 2 17 1 18 -9 8z"/>
<path d="M4320 4018 c0 -6 3 -8 7 -5 3 4 12 2 19 -4 8 -7 14 -6 20 2 4 7 3 9
-4 5 -6 -3 -13 -2 -17 4 -8 14 -25 13 -25 -2z"/>
<path d="M4416 4021 c-4 -5 -2 -12 4 -16 18 -11 12 -35 -7 -29 -15 5 -15 4 -3
-4 20 -15 31 -5 27 23 -4 29 -13 40 -21 26z"/>
<path d="M4497 4017 c-4 -10 -2 -17 4 -17 6 0 7 -5 4 -10 -3 -6 -18 -8 -32 -6
-14 3 -23 2 -19 -1 3 -4 -1 -15 -11 -25 -9 -10 -12 -18 -7 -18 5 0 15 9 22 20
7 12 18 18 24 14 7 -5 6 -11 -6 -20 -11 -8 -13 -14 -7 -19 6 -3 11 -1 11 6 0
13 14 3 16 -12 1 -5 2 -13 3 -19 0 -5 6 -10 12 -10 8 0 8 4 0 13 -8 10 -7 17
2 27 8 9 9 11 0 6 -18 -10 -25 11 -8 27 10 11 12 22 7 38 -7 19 -10 20 -15 6z"/>
<path d="M5890 4015 c0 -11 51 -57 57 -52 2 3 -3 11 -11 20 -8 8 -12 19 -8 23
4 5 3 6 -2 2 -5 -4 -15 -3 -23 3 -7 6 -13 8 -13 4z"/>
<path d="M6020 4008 c0 -23 15 -31 29 -14 8 10 9 16 1 21 -5 3 -10 0 -10 -7 0
-9 -3 -9 -10 2 -8 13 -10 13 -10 -2z"/>
<path d="M6090 4009 c0 -5 -5 -7 -12 -3 -6 4 -8 3 -4 -4 3 -6 2 -13 -4 -17 -5
-3 -10 -12 -10 -18 0 -8 3 -8 9 2 5 8 11 9 15 3 7 -12 -25 -26 -33 -14 -10 15
-40 21 -47 10 -4 -6 -12 1 -21 18 -7 16 -11 21 -9 12 4 -12 0 -16 -12 -12 -11
3 -9 -1 6 -12 12 -9 21 -26 21 -38 -1 -17 -2 -18 -6 -3 -4 14 -12 17 -34 13
-22 -3 -29 0 -29 12 0 21 -10 10 -15 -17 -3 -18 -1 -20 15 -11 13 7 21 6 29
-4 15 -18 -21 -50 -49 -43 -11 3 -20 1 -20 -4 0 -5 10 -9 21 -9 17 0 20 -5 16
-21 -4 -17 -3 -19 6 -10 6 6 20 11 30 11 17 0 17 -2 -4 -19 -19 -16 -22 -22
-11 -32 9 -10 15 -10 23 -2 6 6 17 9 24 6 8 -2 19 5 25 17 8 15 18 20 31 17
10 -3 19 -1 19 5 0 5 6 6 13 2 6 -3 -1 5 -17 18 -20 17 -25 27 -18 32 7 4 12
1 12 -8 0 -19 11 -20 29 -3 11 10 13 9 8 -5 -3 -10 1 -19 10 -22 21 -9 31 3
13 14 -14 9 -12 11 20 14 8 0 16 9 18 20 3 11 0 16 -7 12 -6 -4 -11 0 -11 9 0
9 4 13 10 10 6 -3 7 1 4 9 -3 9 -11 13 -16 10 -6 -4 -8 1 -4 14 4 12 1 26 -9
36 -19 19 -25 20 -25 5z m24 -40 c-3 -5 -1 -24 4 -42 9 -34 6 -37 -37 -28 -2
1 4 10 14 21 10 11 13 20 7 20 -6 0 -12 -3 -15 -7 -2 -5 -2 -1 1 7 3 8 4 26 3
39 -1 20 1 21 14 11 8 -7 12 -16 9 -21z m-79 -19 c8 0 21 -7 30 -16 13 -14 14
-19 3 -25 -11 -7 -11 -9 0 -9 7 0 10 -5 7 -11 -7 -11 -34 17 -35 36 0 6 5 3
11 -5 9 -13 10 -13 6 0 -2 9 -14 14 -30 13 -16 -1 -27 3 -27 11 0 17 14 30 18
17 2 -6 10 -11 17 -11z m-60 -31 c4 -12 10 -17 14 -12 9 14 41 24 41 13 0 -6
-6 -10 -12 -10 -8 0 -9 -3 -3 -8 16 -12 16 -32 -1 -32 -8 0 -13 3 -11 8 3 4
-6 8 -19 8 -13 1 -21 -2 -18 -7 3 -5 13 -9 22 -9 15 0 15 -2 2 -10 -11 -8 -7
-9 14 -4 l28 7 -23 -27 c-13 -15 -25 -22 -27 -17 -2 7 -10 5 -19 -5 -8 -8 -18
-12 -22 -8 -3 3 4 13 16 21 26 17 20 43 -8 36 -10 -3 -19 0 -19 6 0 6 7 8 17
4 11 -5 14 -3 8 6 -4 8 -2 17 6 21 10 7 10 11 0 24 -8 10 -9 16 -3 16 6 0 14
-10 17 -21z"/>
<path d="M4273 3975 c0 -14 3 -25 8 -25 4 0 6 10 4 21 -6 32 -12 34 -12 4z"/>
<path d="M4337 3983 c-7 -11 11 -53 22 -53 5 0 11 5 13 11 3 9 9 9 26 0 18
-10 21 -9 16 4 -3 8 -10 12 -15 9 -5 -3 -9 3 -9 12 0 14 -3 13 -20 -6 -18 -21
-20 -22 -21 -4 -1 10 -1 22 0 27 0 4 -1 7 -3 7 -3 0 -7 -3 -9 -7z"/>
<path d="M4303 3961 c-3 -11 -12 -22 -22 -24 -14 -4 -14 -5 1 -6 10 0 16 -7
14 -13 -1 -7 -1 -10 1 -5 3 4 10 4 16 0 7 -3 9 -3 5 2 -4 4 -3 14 3 22 9 10 8
13 -1 13 -7 0 -10 7 -6 15 3 8 3 15 0 15 -3 0 -8 -9 -11 -19z"/>
<path d="M6305 3970 c-3 -5 -1 -10 6 -10 8 0 8 -4 -1 -15 -16 -19 -3 -20 15
-1 12 12 12 16 1 25 -10 8 -16 9 -21 1z"/>
<path d="M4001 3943 c9 -10 8 -13 -4 -13 -9 0 -19 -6 -23 -12 -4 -7 -4 -10 1
-6 4 4 14 3 22 -4 8 -6 13 -7 12 -2 -1 5 0 11 1 14 8 21 6 37 -6 37 -10 0 -11
-4 -3 -14z"/>
<path d="M4531 3943 c-1 -12 4 -25 9 -28 12 -7 12 2 0 30 -8 19 -9 19 -9 -2z"/>
<path d="M4640 3952 c0 -5 7 -9 15 -9 8 0 12 4 9 9 -3 4 -9 8 -15 8 -5 0 -9
-4 -9 -8z"/>
<path d="M6354 3952 c3 -5 0 -13 -6 -15 -9 -4 -10 -6 -1 -6 17 -1 25 16 12 25
-7 4 -9 3 -5 -4z"/>
<path d="M4676 3926 c-4 -18 -11 -24 -24 -20 -13 5 -14 4 -3 -4 9 -6 12 -20 8
-38 -4 -16 -4 -23 -1 -16 3 6 10 10 15 7 5 -4 6 1 3 10 -4 8 -1 29 6 46 7 16
10 32 8 35 -3 3 -8 -6 -12 -20z"/>
<path d="M4715 3916 c0 -13 4 -28 9 -33 5 -5 7 -1 3 10 -8 21 9 23 17 1 3 -8
11 -12 17 -8 8 5 8 1 0 -14 -6 -11 -16 -23 -23 -25 -8 -3 -6 -6 5 -6 21 -1 22
-15 1 -35 -8 -9 -11 -16 -5 -16 5 0 15 8 20 18 11 18 15 3 5 -22 -3 -8 -12
-12 -21 -9 -12 5 -14 3 -8 -7 5 -8 3 -11 -5 -8 -8 2 -14 14 -15 26 -1 12 -5
25 -10 29 -4 5 -4 -3 0 -17 8 -25 8 -25 -14 -6 -21 19 -30 43 -11 31 6 -3 10
-1 10 5 0 6 15 17 33 25 17 8 30 15 27 15 -34 8 -50 9 -46 2 3 -5 -6 -16 -20
-26 -13 -11 -24 -24 -24 -31 0 -19 -38 -6 -43 14 -4 15 -5 15 -6 0 0 -9 6 -22
14 -29 8 -7 15 -10 15 -6 0 3 9 -3 21 -15 26 -26 19 -48 -14 -42 -17 3 -24 0
-24 -11 0 -12 4 -13 14 -5 10 9 13 8 13 -4 0 -8 -5 -17 -12 -19 -7 -3 -13 -21
-14 -41 -1 -31 2 -37 20 -36 18 0 18 1 4 7 -12 5 -15 11 -8 22 6 9 5 20 -3 29
-9 12 -9 13 1 7 7 -4 12 -2 12 4 0 6 5 8 12 4 8 -5 9 -2 5 10 -4 10 -1 19 8
22 8 4 15 16 16 28 0 15 2 17 7 6 13 -28 46 -23 66 11 10 17 21 27 25 23 11
-16 29 -14 26 4 -1 9 2 23 8 30 6 8 12 23 12 34 2 20 1 20 -11 3 -7 -10 -11
-21 -9 -26 3 -4 1 -10 -4 -13 -5 -3 -11 1 -15 9 -3 8 -12 12 -21 9 -8 -3 -15
-1 -15 5 0 6 11 11 25 11 20 0 25 5 24 23 -1 16 -2 18 -6 5 -6 -22 -19 -23
-27 -2 -3 8 -10 12 -16 9 -9 -5 -12 1 -9 21 1 7 -22 24 -31 24 -3 0 -6 -11 -5
-24z m89 -115 c-7 -7 -34 21 -28 31 3 5 12 1 19 -9 7 -10 12 -20 9 -22z m-119
-12 c11 -17 -1 -21 -15 -4 -8 9 -8 15 -2 15 6 0 14 -5 17 -11z"/>
<path d="M6171 3927 c-8 -10 -7 -14 2 -14 8 0 14 6 14 14 0 7 -1 13 -2 13 -2
0 -8 -6 -14 -13z"/>
<path d="M5510 3909 c0 -5 5 -7 10 -4 6 3 10 8 10 11 0 2 -4 4 -10 4 -5 0 -10
-5 -10 -11z"/>
<path d="M6300 3909 c0 -5 5 -7 10 -4 6 3 10 8 10 11 0 2 -4 4 -10 4 -5 0 -10
-5 -10 -11z"/>
<path d="M4411 3901 c-9 -6 -10 -10 -2 -12 7 -3 13 -12 15 -22 1 -10 16 -27
32 -38 26 -17 27 -19 7 -19 -12 0 -25 5 -28 10 -4 6 -12 7 -18 3 -17 -11 -41
-10 -49 2 -5 6 -8 2 -8 -7 0 -14 7 -17 30 -14 27 3 30 1 24 -17 -4 -13 -2 -17
5 -13 6 4 11 13 11 21 0 8 7 11 20 8 17 -5 17 -7 -9 -29 -36 -30 -41 -30 -42
-1 0 21 -1 21 -9 2 -5 -11 -9 -23 -9 -27 -2 -17 33 -7 61 17 22 19 34 23 43
15 9 -8 14 -6 19 6 5 12 2 15 -10 10 -10 -4 -14 -2 -11 6 2 7 11 12 18 10 8
-2 10 0 6 5 -8 8 -12 9 -38 12 -8 1 -8 5 0 15 9 11 7 12 -12 9 -16 -3 -24 0
-25 11 -4 36 -5 46 -6 46 -1 0 -7 -4 -15 -9z"/>
<path d="M4686 3895 c-9 -26 -7 -32 5 -12 6 10 9 21 6 23 -2 3 -7 -2 -11 -11z"/>
<path d="M5470 3900 c0 -6 7 -10 15 -10 8 0 15 2 15 4 0 2 -7 6 -15 10 -8 3
-15 1 -15 -4z"/>
<path d="M3968 3880 c40 -25 47 -25 25 -2 -10 10 -27 18 -37 19 -14 2 -10 -4
12 -17z"/>
<path d="M4037 3893 c-10 -9 -9 -23 1 -23 5 0 9 7 9 15 0 17 -1 18 -10 8z"/>
<path d="M4310 3896 c0 -2 7 -7 16 -10 8 -3 12 -2 9 4 -6 10 -25 14 -25 6z"/>
<path d="M4455 3891 c-3 -5 -2 -12 3 -15 5 -3 9 1 9 9 0 17 -3 19 -12 6z"/>
<path d="M4526 3884 c-5 -14 -4 -15 9 -4 17 14 19 20 6 20 -5 0 -12 -7 -15
-16z"/>
<path d="M5814 3889 c-4 -8 0 -10 21 -9 3 0 12 -5 19 -12 18 -16 9 -33 -9 -18
-12 10 -12 6 -2 -19 6 -17 15 -31 19 -31 3 0 5 -11 2 -25 -4 -25 -4 -25 14 -8
17 17 17 19 0 34 -18 16 -25 40 -10 38 19 -3 21 3 7 25 -17 26 -51 40 -61 25z"/>
<path d="M4256 3875 c4 -8 8 -15 10 -15 2 0 4 7 4 15 0 8 -4 15 -10 15 -5 0
-7 -7 -4 -15z"/>
<path d="M4297 3873 c3 -7 9 -10 14 -7 5 3 9 -2 9 -11 0 -10 -5 -13 -12 -9 -7
4 -8 3 -4 -4 4 -6 13 -9 21 -6 8 4 12 10 9 15 -3 5 0 9 5 9 6 0 11 -5 11 -11
0 -6 7 -9 15 -5 8 3 15 1 15 -4 0 -6 7 -10 15 -10 12 0 12 3 -2 18 -12 12 -21
14 -25 8 -5 -7 -8 -7 -8 -1 0 6 -15 15 -34 21 -27 8 -33 8 -29 -3z"/>
<path d="M4485 3880 c-3 -6 1 -7 9 -4 18 7 21 14 7 14 -6 0 -13 -4 -16 -10z"/>
<path d="M4610 3879 c0 -5 5 -7 10 -4 6 3 10 8 10 11 0 2 -4 4 -10 4 -5 0 -10
-5 -10 -11z"/>
<path d="M4881 3872 c-6 -2 -8 -9 -4 -15 4 -7 -2 -5 -12 3 -17 14 -18 13 -12
-3 4 -10 7 -23 7 -28 0 -6 5 -7 10 -4 6 3 10 1 10 -4 0 -10 -13 -15 -32 -13
-3 1 -9 -5 -12 -13 -6 -16 9 -21 18 -6 4 5 14 8 24 6 9 -2 20 -4 25 -4 4 -1 7
-5 7 -10 0 -5 -9 -7 -20 -4 -11 3 -27 0 -35 -7 -8 -7 -15 -9 -15 -6 0 4 -9 2
-20 -4 -21 -11 -27 -30 -9 -30 5 0 7 5 4 10 -3 6 -4 10 -1 10 10 0 32 -55 31
-77 -2 -14 2 -20 11 -16 7 2 10 11 7 19 -7 18 1 18 16 0 10 -12 7 -17 -16 -29
-15 -8 -33 -12 -40 -10 -7 2 -10 -3 -8 -14 2 -10 4 -21 4 -25 1 -5 14 -8 31
-8 22 0 28 4 24 15 -4 8 -10 15 -16 15 -5 0 -6 -4 -3 -10 8 -12 -5 -13 -24 -1
-11 7 -8 11 10 17 35 12 80 11 76 -1 -2 -5 -12 -9 -22 -8 -12 1 -14 -2 -6 -10
8 -8 14 -8 23 1 13 13 32 17 25 5 -3 -5 15 -9 39 -9 24 -1 44 2 44 8 0 5 5 6
11 2 8 -4 8 -9 0 -17 -6 -6 -11 -16 -11 -21 0 -6 7 0 16 12 8 12 23 22 32 22
10 0 13 3 6 8 -6 4 -10 25 -9 48 1 32 -3 40 -18 41 -16 2 -17 0 -5 -14 9 -12
10 -15 1 -9 -9 5 -13 0 -13 -13 0 -32 -1 -35 -12 -48 -12 -15 -28 -17 -28 -4
0 5 8 11 18 13 15 3 15 5 -5 22 -12 11 -19 24 -17 31 4 8 -4 11 -20 10 -14 -2
-29 1 -32 6 -3 6 9 8 30 6 38 -4 66 9 69 33 2 8 6 21 10 27 6 9 3 11 -7 7 -11
-4 -16 0 -16 11 0 9 4 14 9 11 5 -3 12 1 15 10 10 25 -17 11 -31 -17 l-12 -24
-7 33 c-6 31 -26 43 -39 22 -3 -5 0 -7 9 -4 10 4 14 0 12 -13 -2 -10 1 -24 6
-30 6 -7 7 -20 4 -30 -6 -16 -6 -16 12 0 23 21 38 10 17 -13 -11 -12 -27 -16
-50 -13 -30 3 -37 0 -47 -22 -11 -26 -19 -30 -31 -18 -4 4 5 19 20 35 15 15
22 28 17 28 -6 0 -11 7 -11 15 0 22 15 18 22 -5 7 -23 30 -26 39 -5 3 8 0 14
-7 12 -7 -1 -11 8 -9 23 2 22 1 23 -8 7 -6 -9 -16 -15 -22 -11 -7 4 -5 10 3
16 11 8 10 9 -3 5 -25 -8 -28 1 -12 38 8 19 14 36 14 39 0 5 -31 4 -49 -2z
m22 -47 c-7 -21 -13 -19 -13 6 0 11 4 18 10 14 5 -3 7 -12 3 -20z m-19 -69
c-3 -8 0 -17 7 -22 7 -4 10 -3 5 4 -3 6 -2 13 3 17 15 8 4 -33 -12 -49 -7 -8
-18 -11 -23 -8 -13 9 -37 65 -25 57 5 -3 12 -1 16 5 10 15 35 12 29 -4z m77
-86 c17 -13 26 -26 23 -35 -4 -8 -11 -12 -16 -9 -6 4 -6 9 2 14 9 5 9 9 1 14
-6 4 -11 2 -11 -4 0 -6 -4 -8 -10 -5 -6 4 -7 -1 -3 -12 6 -16 5 -16 -10 -5
-17 14 -12 46 6 35 6 -4 7 -1 2 7 -7 11 -12 9 -23 -8 -8 -12 -19 -22 -24 -22
-8 0 22 49 30 50 2 0 17 -9 33 -20z m91 -46 c-6 -11 -11 -13 -16 -5 -4 6 -3
11 2 11 6 0 8 10 5 23 -4 19 -3 20 7 5 7 -12 8 -24 2 -34z"/>
<path d="M4856 3735 c4 -8 10 -15 15 -15 4 0 6 7 3 15 -4 8 -10 15 -15 15 -4
0 -6 -7 -3 -15z"/>
<path d="M4937 3864 c-8 -9 1 -24 14 -24 6 0 8 4 5 9 -4 5 0 12 6 14 9 4 8 6
-3 6 -9 1 -19 -2 -22 -5z"/>
<path d="M5315 3860 c3 -5 1 -10 -5 -10 -7 0 -6 -5 2 -14 7 -8 15 -10 16 -5 2
5 11 9 20 9 13 0 12 3 -4 15 -22 17 -38 20 -29 5z"/>
<path d="M5723 3863 c-7 -3 -13 -9 -13 -15 0 -7 5 -6 14 1 11 9 15 9 19 -1 4
-9 6 -9 6 -1 1 15 -10 22 -26 16z"/>
<path d="M6136 3861 c-4 -5 3 -7 14 -4 23 6 26 13 6 13 -8 0 -17 -4 -20 -9z"/>
<path d="M4020 3854 c0 -2 14 -10 30 -19 17 -9 30 -12 30 -7 0 4 -13 13 -30
19 -16 6 -30 10 -30 7z"/>
<path d="M4521 3844 c0 -11 3 -14 6 -6 3 7 2 16 -1 19 -3 4 -6 -2 -5 -13z"/>
<path d="M5260 3846 c0 -8 -7 -16 -15 -20 -8 -3 -15 -11 -15 -17 0 -7 8 -5 19
5 11 10 24 15 29 12 6 -3 8 2 5 14 -6 23 -23 27 -23 6z"/>
<path d="M5140 3840 c0 -4 7 -7 15 -6 23 3 26 12 5 13 -11 1 -20 -2 -20 -7z"/>
<path d="M5182 3830 c-7 -12 -17 -18 -22 -15 -5 3 -11 1 -14 -3 -3 -5 7 -8 21
-7 19 1 27 7 30 23 4 27 1 28 -15 2z"/>
<path d="M6178 3843 c7 -3 16 -2 19 1 4 3 -2 6 -13 5 -11 0 -14 -3 -6 -6z"/>
<path d="M4150 3819 c-11 -19 -12 -19 -24 -4 -11 15 -13 15 -13 2 0 -15 114
-73 124 -63 2 2 -16 12 -41 21 -37 14 -44 20 -35 31 6 8 8 14 3 14 -5 0 -2 5
6 10 9 6 10 10 3 10 -7 0 -17 -9 -23 -21z"/>
<path d="M6145 3829 c-4 -6 -5 -12 -2 -15 2 -3 7 2 10 11 7 17 1 20 -8 4z"/>
<path d="M5356 3821 c9 -9 54 -8 48 0 -3 5 -16 8 -29 7 -13 -1 -22 -5 -19 -7z"/>
<path d="M6076 3822 c-3 -5 1 -9 9 -9 8 0 12 4 9 9 -3 4 -7 8 -9 8 -2 0 -6 -4
-9 -8z"/>
<path d="M4523 3807 c-3 -6 -1 -7 4 -4 13 8 39 -21 28 -31 -4 -4 -10 -1 -12 5
-4 10 -9 10 -25 -1 -11 -8 -26 -12 -32 -10 -6 2 -12 -5 -13 -17 -2 -17 1 -18
13 -9 11 10 14 9 14 -2 0 -8 -7 -15 -15 -16 -8 -1 -22 -3 -30 -4 -8 -1 -15 -3
-15 -5 0 -3 7 -11 15 -19 13 -14 15 -14 15 0 0 9 7 16 16 16 8 0 13 -4 9 -9
-12 -20 31 -15 48 5 17 22 31 25 53 12 6 -4 11 -1 11 7 0 8 -4 12 -9 9 -4 -3
-8 -1 -8 5 0 7 -8 7 -25 1 -18 -7 -25 -6 -25 3 0 8 -3 7 -9 -2 -5 -8 -7 -20
-4 -28 3 -7 1 -13 -4 -13 -18 0 -22 12 -10 38 15 37 15 36 32 22 11 -9 15 -9
15 -1 0 7 4 10 10 6 6 -3 5 5 -1 23 -10 28 -34 38 -46 19z"/>
<path d="M5900 3806 c5 -5 10 -18 10 -27 0 -13 6 -17 24 -13 14 2 31 -2 38
-10 12 -12 18 -12 39 1 13 8 17 12 9 10 -8 -2 -23 2 -32 11 -12 10 -18 11 -18
3 0 -8 -9 -7 -29 5 -17 10 -28 21 -26 24 2 4 -3 7 -11 7 -10 0 -11 -4 -4 -11z"/>
<path d="M6021 3806 c-8 -10 -9 -16 -1 -21 5 -3 10 -5 11 -3 4 18 7 38 4 38
-1 0 -8 -6 -14 -14z"/>
<path d="M4323 3794 c-17 -18 -16 -19 6 -21 11 -1 18 4 17 12 -3 22 -10 24
-23 9z"/>
<path d="M5202 3794 c-7 -8 -8 -14 -3 -14 10 0 25 19 20 25 -2 1 -10 -3 -17
-11z"/>
<path d="M6052 3783 c-7 -7 -9 -13 -4 -13 4 0 16 6 26 13 14 10 15 14 4 14 -7
0 -19 -6 -26 -14z"/>
<path d="M4360 3781 c0 -5 5 -13 10 -16 6 -3 10 -2 10 4 0 5 -4 13 -10 16 -5
3 -10 2 -10 -4z"/>
<path d="M5165 3780 c-3 -5 -1 -10 4 -10 6 0 11 5 11 10 0 6 -2 10 -4 10 -3 0
-8 -4 -11 -10z"/>
<path d="M4246 3764 c8 -29 74 -60 74 -34 0 5 -7 7 -15 4 -11 -5 -14 -1 -9 12
5 16 4 16 -5 4 -10 -13 -14 -11 -31 10 -17 23 -19 23 -14 4z"/>
<path d="M5257 3762 c4 -18 2 -21 -11 -16 -9 3 -16 10 -16 14 0 5 -9 8 -19 7
-17 -1 -19 -26 -2 -28 3 0 15 -2 25 -4 11 -2 26 0 33 4 11 6 10 11 -1 26 -15
19 -15 19 -9 -3z"/>
<path d="M5415 3769 c-4 -6 -5 -12 -2 -15 2 -3 7 2 10 11 7 17 1 20 -8 4z"/>
<path d="M5106 3763 c-12 -13 -6 -20 17 -17 12 1 28 3 36 3 19 1 11 7 -20 14
-14 4 -29 4 -33 0z"/>
<path d="M5880 3759 c0 -5 5 -7 10 -4 6 3 10 8 10 11 0 2 -4 4 -10 4 -5 0 -10
-5 -10 -11z"/>
<path d="M4318 3748 c9 -9 15 -9 24 0 9 9 7 12 -12 12 -19 0 -21 -3 -12 -12z"/>
<path d="M4755 3739 c-4 -11 -4 -23 -1 -26 3 -4 6 1 6 10 0 10 4 17 8 17 10 0
8 -67 -2 -77 -3 -3 -6 -11 -6 -16 0 -6 8 -2 19 9 10 10 17 22 14 27 -2 4 3 7
12 7 9 0 14 -4 11 -8 -2 -4 0 -14 5 -22 6 -11 8 -5 7 19 -2 23 -8 36 -20 39
-10 2 -18 10 -18 17 0 23 -29 25 -35 4z m55 -33 c0 -2 -7 -6 -15 -10 -8 -3
-15 -1 -15 4 0 6 7 10 15 10 8 0 15 -2 15 -4z"/>
<path d="M4440 3740 c-13 -8 -12 -10 3 -10 9 0 17 5 17 10 0 12 -1 12 -20 0z"/>
<path d="M5914 3735 c4 -12 0 -14 -22 -9 -23 4 -24 4 -9 -6 10 -6 23 -10 29
-8 14 5 20 38 6 38 -6 0 -8 -7 -4 -15z"/>
<path d="M5946 3738 c3 -4 9 -8 15 -8 5 0 9 4 9 8 0 5 -7 9 -15 9 -8 0 -12 -4
-9 -9z"/>
<path d="M5115 3730 c-4 -6 -2 -17 5 -25 8 -9 8 -15 0 -20 -6 -3 -8 -11 -5
-16 3 -5 0 -6 -8 -3 -19 7 -33 -14 -19 -28 6 -6 7 -21 2 -37 -7 -26 -6 -27 30
-29 30 -2 39 1 43 17 6 24 -7 48 -17 32 -4 -6 -11 -9 -16 -6 -5 3 -12 0 -16
-6 -5 -9 1 -10 21 -5 25 6 27 5 16 -8 -19 -23 -51 -20 -51 3 0 24 10 31 50 36
21 2 28 0 24 -8 -5 -9 -4 -9 6 0 7 6 19 9 26 6 8 -3 16 2 20 10 3 9 12 13 20
10 8 -3 14 1 14 8 0 10 3 11 8 3 5 -8 18 -3 42 17 27 23 32 31 21 41 -10 11
-11 9 -5 -6 6 -16 4 -18 -10 -13 -9 4 -15 3 -12 -2 3 -5 -1 -14 -10 -21 -11
-10 -18 -10 -26 -2 -9 9 -9 12 1 12 7 0 9 5 6 11 -4 6 -10 8 -13 5 -3 -3 -12
0 -21 7 -14 10 -14 10 -3 -5 23 -30 -2 -46 -37 -24 -12 8 -11 11 4 23 11 7 14
13 8 13 -7 0 -15 -5 -18 -10 -7 -12 -25 -4 -25 11 0 6 5 7 10 4 6 -3 10 -1 10
5 0 17 -43 8 -47 -10 -4 -13 -3 -13 6 0 9 12 11 11 11 -7 0 -13 5 -22 11 -20
6 1 14 -4 16 -11 3 -7 -1 -10 -11 -6 -9 3 -20 -3 -28 -15 -8 -13 -22 -20 -38
-20 -23 2 -24 2 -2 6 14 3 22 12 22 24 0 13 4 18 13 13 6 -4 5 1 -4 12 -9 10
-14 25 -12 32 6 15 -3 16 -12 2z m60 -70 c3 -5 -1 -10 -10 -10 -9 0 -13 5 -10
10 3 6 8 10 10 10 2 0 7 -4 10 -10z m48 -7 c-6 -16 -25 -13 -31 5 -2 6 6 10
16 9 12 -1 18 -6 15 -14z"/>
<path d="M4386 3718 c3 -5 9 -7 12 -4 3 3 12 0 21 -6 13 -10 14 -10 4 2 -15
16 -46 23 -37 8z"/>
<path d="M4695 3720 c-4 -6 -11 -8 -16 -5 -5 3 -6 -1 -3 -9 5 -14 9 -14 32 0
23 14 24 14 8 1 -10 -9 -15 -21 -11 -28 6 -8 -1 -10 -22 -7 -20 3 -30 0 -30
-9 0 -8 7 -11 14 -8 8 3 21 5 29 5 11 0 44 47 44 65 0 9 -39 5 -45 -5z"/>
<path d="M5372 3716 c-25 -12 -24 -28 2 -32 11 -2 16 2 12 11 -3 8 -1 17 4 20
5 3 10 -5 12 -17 l3 -23 7 22 c7 26 -8 33 -40 19z"/>
<path d="M4558 3708 c-10 -25 5 -35 30 -22 19 9 20 13 8 17 -9 4 -16 1 -17 -6
0 -7 -4 -3 -8 7 -6 16 -9 17 -13 4z"/>
<path d="M5755 3711 c-6 -11 13 -26 22 -17 4 3 1 6 -6 6 -7 0 -9 5 -6 10 3 6
4 10 1 10 -3 0 -7 -4 -11 -9z"/>
<path d="M4385 3690 c28 -12 37 -12 30 0 -3 6 -16 10 -28 9 -21 0 -21 -1 -2
-9z"/>
<path d="M4996 3685 c-3 -9 0 -15 8 -15 7 0 13 7 13 15 0 8 -4 15 -8 15 -4 0
-9 -7 -13 -15z"/>
<path d="M5801 3689 c-18 -6 -31 -12 -29 -14 2 -3 24 1 49 9 49 16 33 20 -20
5z"/>
<path d="M4743 3678 c-12 -20 -12 -37 -1 -44 5 -3 8 2 7 12 -2 11 0 25 4 32 5
6 6 12 3 12 -3 0 -8 -6 -13 -12z"/>
<path d="M5620 3686 c0 -2 7 -9 15 -16 13 -11 14 -10 9 4 -5 14 -24 23 -24 12z"/>
<path d="M5305 3656 c-15 -15 -31 -22 -44 -19 -15 4 -19 0 -17 -13 2 -10 8
-19 15 -20 6 -1 7 0 1 3 -5 2 -7 9 -4 15 3 5 15 2 27 -9 11 -10 17 -12 12 -4
-5 9 -4 12 3 8 21 -14 42 4 36 29 -5 20 -3 23 12 17 12 -4 15 -3 10 5 -11 18
-24 15 -51 -12z m6 -19 c-10 -9 -11 -8 -5 6 3 10 9 15 12 12 3 -3 0 -11 -7
-18z"/>
<path d="M4485 3660 c26 -11 55 -12 55 -2 0 4 -17 8 -38 9 -28 1 -32 -1 -17
-7z"/>
<path d="M5375 3660 c-9 -14 13 -50 31 -50 8 0 19 12 24 26 12 32 12 34 0 34
-5 0 -10 -11 -10 -25 0 -14 -4 -25 -9 -25 -15 0 -23 18 -11 25 5 3 10 11 10
18 0 6 -7 2 -16 -9 -13 -16 -15 -16 -10 -1 6 19 1 23 -9 7z"/>
<path d="M4565 3651 c-17 -7 -16 -9 9 -15 16 -4 31 -5 34 -1 3 3 0 5 -7 5 -7
0 -9 5 -6 10 7 12 -2 12 -30 1z"/>
<path d="M4790 3640 c-6 -11 -7 -20 -2 -20 6 0 12 9 15 20 3 11 3 20 1 20 -2
0 -8 -9 -14 -20z"/>
<path d="M5345 3640 c3 -5 8 -10 11 -10 2 0 4 5 4 10 0 6 -5 10 -11 10 -5 0
-7 -4 -4 -10z"/>
<path d="M5640 3640 c-8 -5 -10 -10 -5 -10 6 0 17 5 25 10 8 5 11 10 5 10 -5
0 -17 -5 -25 -10z"/>
<path d="M4670 3623 c0 -7 10 -13 23 -12 12 0 16 3 9 6 -6 2 -10 8 -8 12 3 4
-1 8 -9 8 -8 0 -15 -6 -15 -14z"/>
<path d="M4725 3609 c4 -5 18 -9 32 -9 32 0 27 7 -10 14 -16 3 -25 1 -22 -5z"/>
<path d="M5201 3612 c-1 -7 -5 -11 -9 -8 -4 2 -9 -4 -9 -15 -2 -17 0 -18 13
-4 9 8 13 21 11 28 -4 9 -6 9 -6 -1z"/>
<path d="M5221 3604 c0 -11 3 -14 6 -6 3 7 2 16 -1 19 -3 4 -6 -2 -5 -13z"/>
<path d="M5352 3608 c3 -7 20 -14 39 -15 19 -1 25 1 14 4 -11 3 -24 9 -29 14
-14 13 -28 11 -24 -3z"/>
<path d="M5315 3601 c-6 -5 -23 -11 -40 -14 -24 -3 -21 -4 13 -6 24 0 41 3 38
8 -4 5 0 12 6 14 7 3 8 6 3 6 -6 1 -15 -3 -20 -8z"/>
<path d="M5453 3603 c9 -2 25 -2 35 0 9 3 1 5 -18 5 -19 0 -27 -2 -17 -5z"/>
<path d="M4918 3583 c6 -2 18 -2 25 0 6 3 1 5 -13 5 -14 0 -19 -2 -12 -5z"/>
<path d="M5045 3580 c-3 -5 -2 -10 4 -10 5 0 13 5 16 10 3 6 2 10 -4 10 -5 0
-13 -4 -16 -10z"/>
<path d="M5773 4563 c4 -3 -1 -12 -11 -20 -15 -13 -15 -13 4 -4 12 6 24 7 28
3 4 -3 4 1 0 11 -3 9 -11 17 -17 17 -6 0 -7 -3 -4 -7z"/>
<path d="M5835 4560 c3 -5 8 -10 11 -10 2 0 4 5 4 10 0 6 -5 10 -11 10 -5 0
-7 -4 -4 -10z"/>
<path d="M5697 4553 c-11 -11 -8 -20 7 -20 8 0 12 6 9 14 -6 15 -7 15 -16 6z"/>
<path d="M5595 4530 c-3 -5 -1 -10 4 -10 6 0 11 5 11 10 0 6 -2 10 -4 10 -3 0
-8 -4 -11 -10z"/>
<path d="M5766 4522 c-3 -5 1 -9 9 -9 8 0 12 4 9 9 -3 4 -7 8 -9 8 -2 0 -6 -4
-9 -8z"/>
<path d="M5805 4521 c-3 -5 -1 -12 5 -16 5 -3 10 1 10 9 0 18 -6 21 -15 7z"/>
<path d="M5523 4506 c0 -8 6 -12 14 -9 7 3 10 9 7 14 -8 14 -21 11 -21 -5z"/>
<path d="M5634 4506 c-18 -14 -18 -15 -2 -21 10 -4 16 -11 13 -15 -3 -5 0 -12
6 -16 8 -4 9 -3 5 4 -4 7 -2 12 4 12 6 0 8 5 4 12 -4 7 -3 8 5 4 6 -4 9 -11 6
-16 -3 -5 -1 -11 5 -15 6 -4 7 -12 4 -18 -4 -7 -3 -8 2 -4 5 5 10 13 10 18 1
5 2 14 3 19 0 6 8 10 17 10 8 0 12 -4 9 -10 -3 -5 -1 -10 4 -10 6 0 11 9 11
19 0 19 -14 22 -37 8 -7 -5 -13 -4 -13 2 0 5 -15 7 -32 4 -31 -4 -32 -4 -13
11 25 19 16 21 -11 2z"/>
<path d="M5586 4493 c-8 -24 -7 -33 2 -33 4 0 7 3 7 8 0 4 4 12 8 19 4 6 3 14
-2 17 -5 4 -12 -2 -15 -11z"/>
<path d="M5401 4478 c0 -9 -14 -21 -31 -27 -19 -6 -30 -16 -29 -28 1 -15 2
-16 6 -1 3 14 36 29 67 32 5 1 11 8 13 16 4 12 3 13 -5 1 -8 -11 -11 -10 -15
5 -4 15 -5 15 -6 2z"/>
<path d="M5891 4474 c0 -11 3 -14 6 -6 3 7 2 16 -1 19 -3 4 -6 -2 -5 -13z"/>
<path d="M5496 4468 c3 -5 10 -6 15 -3 13 9 11 12 -6 12 -8 0 -12 -4 -9 -9z"/>
<path d="M5325 4460 c3 -5 8 -10 11 -10 2 0 4 5 4 10 0 6 -5 10 -11 10 -5 0
-7 -4 -4 -10z"/>
<path d="M5310 4442 c6 -13 14 -21 18 -18 3 4 -2 14 -12 24 -18 16 -18 16 -6
-6z"/>
<path d="M5273 4443 c-7 -2 -13 -12 -13 -20 0 -9 -7 -21 -16 -27 -13 -10 -11
-12 13 -13 15 -1 22 1 15 4 -10 4 -10 8 -1 19 6 8 8 14 4 14 -4 0 -2 7 5 15
13 16 13 16 -7 8z"/>
<path d="M5713 4436 c-4 -7 -15 -15 -23 -18 -8 -3 1 -6 20 -5 19 0 29 2 23 4
-7 3 -13 9 -13 14 0 6 5 7 10 4 6 -3 10 -1 10 4 0 15 -18 14 -27 -3z"/>
<path d="M5392 4431 c-11 -7 -10 -9 3 -15 10 -3 13 -11 9 -18 -5 -9 -3 -9 9 1
20 16 22 22 5 19 -7 -2 -12 3 -10 10 2 14 1 14 -16 3z"/>
<path d="M5180 4419 c0 -5 5 -7 10 -4 6 3 10 8 10 11 0 2 -4 4 -10 4 -5 0 -10
-5 -10 -11z"/>
<path d="M5367 4404 c3 -7 9 -14 14 -14 14 0 10 17 -5 23 -10 4 -13 1 -9 -9z"/>
<path d="M5150 4399 c0 -5 4 -8 9 -5 5 3 14 -1 21 -9 7 -8 9 -15 4 -15 -4 0
-3 -5 4 -12 9 -9 15 -9 25 1 10 11 10 13 0 7 -8 -4 -13 -1 -13 8 0 8 -9 20
-19 26 -25 13 -31 13 -31 -1z"/>
<path d="M5292 4386 c-1 -13 5 -29 13 -36 11 -9 15 -9 15 -1 0 6 5 10 12 9 7
-2 12 6 12 17 0 11 -6 19 -13 17 -7 -1 -18 2 -25 7 -8 7 -12 3 -14 -13z m45
-11 c0 -6 -9 -12 -19 -12 -10 -1 -18 4 -18 10 0 7 8 13 18 13 10 0 19 -5 19
-11z"/>
<path d="M5423 4374 c0 -7 6 -10 14 -7 7 3 13 8 13 12 0 4 -6 8 -13 8 -8 0
-14 -6 -14 -13z"/>
<path d="M5946 4358 c-8 -18 -16 -26 -16 -17 0 23 -26 31 -40 14 -9 -11 -8
-18 4 -30 9 -9 16 -25 16 -36 0 -11 4 -18 9 -15 10 7 9 25 -2 44 -6 9 -2 11
15 8 13 -3 25 -5 27 -5 3 -1 -4 -8 -15 -17 -10 -8 -14 -13 -7 -10 6 4 15 1 19
-5 4 -8 3 -9 -4 -5 -7 4 -12 2 -12 -4 0 -7 7 -9 16 -6 9 3 21 6 27 6 7 0 4 5
-6 11 -9 6 -15 14 -12 19 3 5 1 11 -5 15 -16 10 -12 25 5 19 8 -4 15 -14 15
-23 0 -10 6 -18 14 -18 12 0 12 4 0 22 -13 21 -13 23 6 28 13 3 20 0 20 -10 0
-8 -5 -11 -11 -8 -6 4 -5 -3 3 -14 11 -18 11 -23 -1 -30 -9 -6 -10 -11 -2 -15
6 -4 8 -12 5 -18 -4 -7 -2 -8 4 -4 7 4 12 20 12 37 0 16 4 29 9 29 5 0 7 -8 4
-18 -2 -11 7 -29 23 -45 28 -29 45 -31 52 -6 3 11 2 11 -7 -1 -10 -13 -15 -8
-12 12 0 4 -6 5 -14 2 -11 -4 -15 1 -15 17 0 20 -2 21 -11 9 -8 -12 -9 -9 -5
13 5 19 2 27 -8 27 -7 0 -17 11 -20 24 -8 31 -33 41 -41 15 -4 -10 -11 -17
-16 -13 -6 4 -6 11 2 20 7 8 7 14 1 14 -5 0 -17 -15 -26 -32z m-26 -14 c0 -8
-19 -13 -24 -6 -3 5 1 9 9 9 8 0 15 -2 15 -3z"/>
<path d="M5230 4352 c0 -10 3 -13 8 -7 8 13 22 13 42 1 12 -7 13 -6 3 4 -20
22 -53 23 -53 2z"/>
<path d="M4927 4353 c-4 -6 0 -16 9 -23 12 -11 12 -15 2 -21 -22 -15 -46 -10
-44 9 0 9 6 21 11 25 6 4 -8 5 -30 1 -52 -8 -75 -28 -55 -46 8 -7 11 -9 7 -4
-4 5 -2 15 4 23 15 17 43 18 33 1 -5 -9 -2 -9 9 1 11 8 17 9 17 3 0 -6 -9 -16
-20 -22 -11 -6 -17 -16 -14 -22 5 -7 2 -9 -7 -6 -17 6 -24 -28 -8 -37 5 -3 6
0 3 8 -8 21 28 32 42 13 6 -9 13 -13 16 -10 3 3 15 -7 27 -22 22 -28 22 -34
-1 -38 -7 -1 -19 -6 -27 -10 -11 -7 -13 -5 -8 7 3 8 -1 21 -9 28 -12 10 -14 8
-10 -12 3 -13 5 -26 6 -29 2 -3 2 -9 1 -14 -1 -5 4 -13 11 -17 7 -5 13 -14 14
-21 2 -28 17 -48 36 -48 11 0 16 -4 13 -11 -4 -6 -13 -8 -21 -5 -12 4 -12 2
-4 -14 11 -21 40 -28 40 -9 0 5 -4 7 -10 4 -14 -9 -12 9 2 23 10 10 8 14 -10
19 -19 5 -21 8 -10 22 12 15 11 15 -6 1 -18 -14 -19 -13 -14 1 4 9 1 22 -5 29
-9 10 -9 11 0 6 6 -3 15 -1 19 5 3 6 20 9 38 6 17 -3 25 -3 18 0 -6 2 -9 10
-6 15 5 7 2 8 -7 3 -11 -6 -11 -5 -3 4 9 10 17 9 37 -3 24 -16 24 -16 23 14
-1 33 -16 42 -16 9 0 -11 -5 -17 -10 -14 -6 4 -8 11 -5 16 3 5 -1 6 -9 3 -8
-3 -23 0 -33 6 -16 10 -16 11 5 7 12 -3 22 -1 22 4 0 5 3 8 8 8 27 -4 34 9 22
41 -1 3 -2 8 -1 13 0 4 -3 7 -9 7 -5 0 -7 7 -4 15 4 8 1 15 -5 15 -7 0 -16 10
-21 23 -5 13 -9 16 -10 7 -1 -10 -4 -9 -10 5 l-9 20 -1 -20 c-1 -19 -2 -19 -9
-1 -5 12 -10 15 -14 9z m53 -43 c21 -18 16 -29 -6 -12 -5 4 -1 0 8 -10 10 -9
18 -21 18 -26 0 -6 4 -12 10 -14 6 -2 6 -8 0 -18 -8 -13 -10 -12 -10 3 0 10
-5 15 -10 12 -6 -4 -8 -11 -4 -16 3 -6 -3 -5 -15 3 -24 15 -29 33 -6 24 19 -7
19 8 1 23 -8 7 -14 21 -13 32 2 23 -1 23 27 -1z m-95 -20 c-8 -12 -3 -13 29
-1 17 7 27 6 35 -3 11 -13 5 -26 -11 -26 -5 0 -6 5 -2 12 5 7 3 8 -5 3 -9 -5
-7 -13 10 -31 12 -13 17 -24 11 -24 -7 0 -21 15 -32 33 -11 17 -20 26 -20 19
0 -10 -4 -10 -20 0 -14 9 -16 14 -7 20 16 10 19 10 12 -2z m78 -116 c-3 -8
-11 -13 -19 -10 -7 3 -14 0 -17 -7 -2 -6 -6 -3 -10 7 -4 9 -3 15 1 12 4 -2 14
-1 22 5 22 13 30 11 23 -7z m-53 -24 c0 -5 -2 -10 -4 -10 -3 0 -8 5 -11 10 -3
6 -1 10 4 10 6 0 11 -4 11 -10z"/>
<path d="M5239 4330 c-19 -13 -8 -18 21 -10 19 4 21 7 9 12 -9 3 -22 2 -30 -2z"/>
<path d="M5313 4333 c-15 -6 -17 -43 -3 -43 6 0 10 10 10 23 1 21 1 22 15 3 8
-11 15 -14 15 -8 0 7 4 12 10 12 5 0 6 -7 3 -17 -4 -10 -2 -14 5 -9 6 3 10 14
9 24 -1 17 -37 25 -64 15z"/>
<path d="M4860 4240 c0 -5 5 -10 11 -10 5 0 7 5 4 10 -3 6 -8 10 -11 10 -2 0
-4 -4 -4 -10z"/>
<path d="M4900 4221 c0 -5 5 -13 10 -16 6 -3 10 -2 10 4 0 5 -4 13 -10 16 -5
3 -10 2 -10 -4z"/>
<path d="M4935 4130 c-3 -5 -1 -10 4 -10 6 0 11 5 11 10 0 6 -2 10 -4 10 -3 0
-8 -4 -11 -10z"/>
<path d="M4894 4071 c4 -6 0 -14 -10 -18 -15 -5 -14 -8 6 -15 13 -5 25 -6 28
-3 3 3 0 5 -6 5 -6 0 -9 6 -6 14 3 8 0 17 -7 22 -8 4 -10 3 -5 -5z"/>
<path d="M4981 4038 c-1 -21 4 -28 17 -28 11 0 13 3 6 8 -7 4 -14 16 -17 27
-4 15 -5 14 -6 -7z"/>
<path d="M6251 4528 c16 -32 17 -32 15 -4 0 14 -7 26 -14 26 -10 0 -10 -5 -1
-22z"/>
<path d="M6430 4493 c-1 -24 -3 -26 -13 -13 -14 17 -37 24 -37 11 0 -8 34 -22
45 -18 2 1 10 -6 17 -16 12 -15 13 -14 11 15 -2 48 -2 48 -13 48 -5 0 -10 -12
-10 -27z"/>
<path d="M6473 4484 c-10 -22 -9 -26 10 -33 l22 -8 -23 -7 c-12 -4 -22 -12
-22 -17 0 -13 18 -11 23 4 3 7 6 4 6 -6 1 -10 6 -15 11 -12 6 4 8 10 5 15 -9
15 27 29 52 19 21 -8 23 -7 13 11 -9 16 -15 18 -30 10 -24 -13 -33 -13 -25 0
3 6 -1 7 -9 4 -11 -4 -16 0 -16 11 0 9 4 14 8 11 5 -3 9 1 9 9 0 24 -21 17
-34 -11z"/>
<path d="M6532 4496 c7 -8 15 -12 17 -11 5 6 -10 25 -20 25 -5 0 -4 -6 3 -14z"/>
<path d="M6561 4499 c-1 -9 7 -23 17 -30 15 -12 16 -12 6 1 -6 8 -14 22 -17
30 -5 13 -6 12 -6 -1z"/>
<path d="M6790 4502 c0 -7 0 -14 0 -17 0 -3 3 -6 8 -6 4 -1 17 -5 30 -10 16
-6 22 -5 22 6 0 19 -17 28 -24 13 -3 -9 -9 -7 -20 6 -9 11 -16 14 -16 8z"/>
<path d="M6615 4492 c-5 -4 -11 -15 -13 -24 -2 -12 3 -16 18 -13 11 2 18 0 15
-6 -4 -5 -13 -9 -21 -9 -7 0 -19 -9 -26 -20 -14 -22 -30 -27 -25 -9 1 6 -5 14
-13 16 -13 4 -13 3 0 -6 10 -7 11 -11 3 -11 -7 0 -13 -4 -13 -8 0 -4 17 -8 38
-9 20 0 31 2 25 4 -7 3 -13 9 -13 14 0 6 5 7 12 3 7 -4 8 -3 4 4 -4 7 -3 12 3
12 19 0 22 -21 7 -46 -13 -18 -14 -29 -6 -43 6 -11 6 -22 1 -25 -5 -3 -11 3
-14 14 -3 11 -11 20 -19 20 -11 0 -10 -2 1 -9 7 -5 11 -13 7 -19 -3 -5 1 -12
9 -16 9 -3 12 -12 8 -22 -5 -15 -8 -14 -16 7 -6 13 -9 27 -9 32 1 4 -2 7 -8 7
-5 0 -10 -6 -10 -12 0 -10 -2 -10 -9 0 -6 10 -10 7 -13 -12 -4 -19 0 -31 16
-41 31 -22 42 -18 57 18 7 17 18 35 23 39 7 5 6 8 -2 8 -7 0 -10 5 -7 10 3 6
2 10 -4 10 -6 0 -8 7 -5 15 5 13 9 13 23 3 9 -7 13 -9 9 -4 -11 13 25 44 40
33 8 -7 12 -5 12 7 0 9 -6 15 -12 14 -8 -2 -12 6 -10 20 2 12 -1 22 -7 22 -6
0 -8 -6 -5 -13 3 -8 -1 -14 -9 -14 -9 0 -12 7 -9 19 3 12 -1 18 -13 18 -11 0
-15 5 -11 15 6 17 5 18 -9 7z m51 -75 c4 -4 0 -7 -9 -7 -9 0 -18 4 -21 9 -7
10 20 9 30 -2z m-16 -21 c0 -3 -4 -8 -10 -11 -5 -3 -10 -1 -10 4 0 6 5 11 10
11 6 0 10 -2 10 -4z m-67 -118 c3 -10 1 -18 -4 -18 -5 0 -9 5 -9 10 0 6 -3 9
-7 9 -16 -3 -24 1 -19 9 9 15 34 9 39 -10z"/>
<path d="M6660 4491 c0 -6 5 -13 10 -16 6 -3 10 1 10 9 0 9 -4 16 -10 16 -5 0
-10 -4 -10 -9z"/>
<path d="M6715 4491 c-3 -2 -5 -9 -5 -15 0 -6 5 -4 10 4 6 10 10 11 10 3 0 -7
7 -13 16 -13 8 0 13 -4 10 -9 -3 -5 -14 -7 -24 -4 -12 3 -19 -1 -19 -11 0 -8
4 -13 9 -10 4 3 8 0 8 -7 0 -7 7 -4 15 7 15 19 16 19 13 -1 -2 -12 2 -19 10
-17 6 1 12 -6 12 -15 0 -15 2 -15 9 -4 8 12 12 12 25 2 8 -7 12 -19 9 -27 -3
-9 1 -14 12 -14 16 0 16 2 1 25 -14 22 -15 25 -1 25 8 0 15 5 15 12 0 6 -3 8
-6 5 -4 -3 -15 -2 -25 4 -13 6 -19 6 -19 -1 0 -5 -5 -10 -11 -10 -5 0 -7 5 -3
12 4 7 3 8 -4 4 -7 -4 -12 -3 -12 3 0 5 6 11 13 14 7 2 0 10 -16 17 -19 10
-24 16 -15 21 8 5 5 7 -10 6 -13 -1 -25 -3 -27 -6z"/>
<path d="M6864 4448 c-4 -6 -3 -8 4 -4 5 3 13 0 15 -6 3 -8 6 -6 6 5 1 19 -14
23 -25 5z"/>
<path d="M6828 4443 c7 -3 16 -2 19 1 4 3 -2 6 -13 5 -11 0 -14 -3 -6 -6z"/>
<path d="M6707 4399 c-4 -13 -10 -18 -17 -14 -7 4 -16 1 -21 -6 -14 -22 -10
-33 6 -19 17 14 35 5 35 -18 0 -15 -2 -15 -10 -2 -6 10 -10 11 -10 3 0 -7 -3
-12 -7 -12 -19 3 -33 -2 -33 -12 0 -5 5 -7 10 -4 6 3 10 1 10 -5 0 -6 -12 -15
-27 -21 -27 -10 -28 -11 -8 -25 11 -9 19 -20 18 -25 -4 -13 18 -11 46 5 15 8
20 16 12 20 -6 4 -11 12 -11 17 0 6 5 7 10 4 14 -9 61 22 59 38 -3 25 2 37 15
37 8 0 17 7 20 16 5 14 4 15 -8 5 -11 -10 -16 -9 -23 4 -5 9 -16 17 -24 18 -8
2 -19 6 -25 10 -7 4 -14 -2 -17 -14z m59 -36 c-4 -4 -11 -1 -16 7 -6 8 -10 10
-10 5 0 -6 6 -17 13 -24 10 -12 9 -13 -7 -7 -19 7 -19 6 -1 -14 16 -18 16 -20
2 -20 -10 0 -17 -5 -17 -11 0 -5 -4 -8 -9 -5 -5 4 -20 2 -33 -3 -12 -6 -18
-10 -12 -10 18 -1 26 -31 8 -31 -8 0 -12 5 -9 10 3 6 -4 10 -17 10 l-22 0 22
16 c13 9 21 22 18 29 -5 13 18 15 30 2 14 -13 19 -7 19 23 0 18 -5 30 -13 30
-7 0 -11 4 -7 10 3 5 12 7 20 3 9 -3 15 1 15 8 0 10 5 9 17 -4 9 -9 13 -20 9
-24z"/>
<path d="M6900 4409 c0 -5 5 -7 10 -4 6 3 10 8 10 11 0 2 -4 4 -10 4 -5 0 -10
-5 -10 -11z"/>
<path d="M6863 4365 c0 -8 4 -12 9 -9 5 3 6 10 3 15 -9 13 -12 11 -12 -6z"/>
<path d="M6495 4333 c-20 -15 -20 -15 2 -10 15 3 20 1 16 -9 -3 -8 -1 -14 4
-14 10 0 15 38 5 44 -4 2 -16 -3 -27 -11z"/>
<path d="M6790 4335 c0 -8 2 -15 4 -15 2 0 6 7 10 15 3 8 1 15 -4 15 -6 0 -10
-7 -10 -15z"/>
<path d="M6478 4303 c7 -3 16 -2 19 1 4 3 -2 6 -13 5 -11 0 -14 -3 -6 -6z"/>
<path d="M6479 4285 c-5 -20 -4 -32 4 -49 6 -13 5 -21 -4 -27 -10 -6 -5 -8 14
-7 15 1 27 6 27 11 0 5 5 5 13 0 6 -5 23 -6 37 -2 14 4 18 8 10 8 -13 1 -13 2
0 11 12 8 10 10 -8 10 -16 0 -21 -4 -16 -12 6 -10 4 -10 -8 0 -8 7 -22 10 -31
6 -21 -7 -31 12 -17 33 10 16 11 15 7 -5 -3 -12 -1 -20 4 -16 18 11 10 44 -11
44 -11 0 -21 -2 -21 -5z"/>
<path d="M3843 4486 c0 -9 9 -13 24 -11 17 2 23 -2 19 -11 -3 -8 -1 -14 4 -14
6 0 10 9 10 21 0 14 -5 19 -15 16 -8 -4 -17 -2 -20 3 -9 15 -22 12 -22 -4z"/>
<path d="M3951 4454 c0 -11 3 -14 6 -6 3 7 2 16 -1 19 -3 4 -6 -2 -5 -13z"/>
<path d="M3840 4450 c-12 -8 -13 -11 -2 -22 8 -7 13 -8 12 -3 -5 22 1 29 10
15 6 -9 10 -10 10 -3 0 17 -14 23 -30 13z"/>
<path d="M3914 4448 c3 -9 2 -19 -2 -21 -4 -2 -1 -2 6 -1 6 2 12 -1 12 -7 0
-6 5 -7 10 -4 6 4 10 -6 10 -22 0 -20 3 -24 9 -14 5 8 7 20 4 28 -3 7 0 13 6
13 6 0 11 4 11 9 0 5 -9 7 -20 4 -13 -4 -27 1 -36 13 -13 16 -15 16 -10 2z"/>
<path d="M4000 4435 c-10 -12 -10 -15 3 -15 8 0 17 -6 20 -12 2 -7 4 -1 4 15
1 30 -8 34 -27 12z"/>
<path d="M3802 4433 c-8 -3 -23 -19 -34 -37 -11 -17 -18 -23 -14 -13 3 9 1 17
-5 17 -16 0 -6 -33 11 -36 67 -11 86 -17 93 -29 4 -8 14 -12 22 -8 11 3 13 1
10 -10 -5 -13 22 -34 31 -24 9 8 -30 48 -42 43 -8 -3 -14 -1 -14 4 0 15 50 12
50 -2 0 -7 5 -5 11 5 6 9 14 15 20 12 5 -3 6 1 2 10 -4 12 -8 13 -13 5 -5 -9
-9 -9 -11 -1 -2 6 -14 13 -27 16 -28 5 -28 -3 1 -15 22 -9 22 -9 -3 -9 -30 -1
-51 16 -43 35 5 14 -6 18 -42 14 l-20 -2 20 16 c21 16 20 18 -3 9z m3 -45 c-3
6 -1 12 4 12 6 0 13 0 16 0 3 0 5 -3 6 -7 0 -5 8 -16 17 -26 15 -17 15 -18 -8
-9 -28 11 -32 12 -57 13 -10 0 -13 3 -6 5 7 3 9 13 6 22 -4 13 -2 12 11 -3 10
-11 15 -14 11 -7z"/>
<path d="M3875 4421 c-3 -5 -2 -12 3 -15 5 -3 9 1 9 9 0 17 -3 19 -12 6z"/>
<path d="M4108 4403 c-5 -18 -2 -21 20 -17 23 5 24 3 11 -13 -12 -16 -12 -17
2 -6 21 17 32 5 14 -14 -10 -10 -12 -20 -5 -38 6 -15 6 -27 0 -30 -6 -4 -10
-12 -9 -18 0 -9 2 -9 5 0 3 7 11 10 19 7 7 -3 16 0 20 5 3 6 11 9 16 6 5 -3 6
2 2 11 -5 13 -3 15 8 9 12 -8 12 -6 0 8 -15 19 -1 23 17 5 8 -8 12 -8 12 -1 0
16 -29 24 -48 13 -10 -5 -12 -10 -5 -10 7 0 10 -6 7 -14 -9 -23 -31 -8 -31 20
0 17 4 23 13 20 7 -3 16 -1 20 5 3 6 13 8 21 4 12 -4 13 -3 5 8 -7 8 -8 18 -4
22 4 5 2 5 -5 1 -6 -3 -15 -2 -18 4 -4 6 -15 8 -26 5 -11 -4 -19 -2 -19 6 0 9
-3 9 -14 0 -11 -10 -15 -8 -18 6 -3 16 -5 15 -10 -4z m88 -24 c3 -6 1 -16 -6
-22 -10 -9 -12 -8 -7 5 3 9 1 19 -6 22 -9 3 -9 5 0 5 6 1 15 -4 19 -10z"/>
<path d="M3905 4400 c-3 -5 -1 -10 4 -10 6 0 11 5 11 10 0 6 -2 10 -4 10 -3 0
-8 -4 -11 -10z"/>
<path d="M4035 4389 c-5 -15 -10 -18 -18 -10 -6 6 -15 11 -21 11 -5 0 -1 -6 9
-14 24 -17 40 -12 42 14 2 26 -4 25 -12 -1z"/>
<path d="M4075 4371 c-6 -11 20 -33 28 -24 4 3 7 10 7 14 0 11 -29 19 -35 10z"/>
<path d="M4240 4361 c0 -11 5 -23 12 -27 7 -4 8 -3 4 5 -4 6 -2 18 4 26 10 12
9 15 -4 15 -9 0 -16 -8 -16 -19z"/>
<path d="M3969 4358 c-11 -8 -10 -9 4 -4 9 3 17 0 17 -6 0 -6 3 -8 7 -5 3 4
11 -1 18 -10 15 -20 45 -26 46 -10 0 7 4 3 9 -8 8 -19 9 -19 9 1 1 12 -6 25
-15 28 -8 3 -13 2 -10 -3 3 -5 -1 -11 -9 -14 -8 -4 -12 -1 -9 6 6 17 -50 37
-67 25z"/>
<path d="M3796 4332 c-2 -4 -2 -12 2 -18 9 -13 52 -16 52 -4 0 5 -9 7 -19 5
-14 -3 -18 1 -14 11 5 15 -12 20 -21 6z"/>
<path d="M3929 4323 c-12 -16 -12 -17 1 -7 12 9 19 7 35 -9 l20 -20 -20 7
c-16 6 -18 5 -7 -5 9 -10 15 -10 23 -2 8 8 5 17 -10 32 -25 25 -25 25 -42 4z"/>
<path d="M4093 4314 c0 -9 4 -11 12 -4 7 5 14 9 16 7 2 -1 3 0 1 2 -7 11 -29
7 -29 -5z"/>
<path d="M4253 4305 c0 -8 4 -15 9 -15 4 0 8 4 8 9 0 6 -4 12 -8 15 -5 3 -9
-1 -9 -9z"/>
<path d="M3923 4284 c-7 -7 -13 -21 -13 -31 0 -15 -2 -15 -9 -3 -6 8 -7 18 -5
22 3 4 0 8 -6 8 -7 0 -9 -8 -5 -20 6 -18 3 -20 -37 -16 -24 2 -35 2 -26 -1 11
-3 15 -10 11 -20 -5 -12 -3 -14 8 -7 8 4 20 10 27 11 6 2 20 5 30 7 9 3 21 5
25 5 5 1 5 6 2 11 -4 6 -1 18 6 26 15 19 8 26 -8 8z"/>
<path d="M4030 4280 c6 -11 18 -19 28 -19 16 1 16 2 0 6 -10 2 -18 11 -18 19
0 8 -5 14 -10 14 -7 0 -7 -6 0 -20z"/>
<path d="M4118 4278 c2 -10 6 -18 7 -18 1 0 5 8 7 18 3 11 0 19 -7 19 -7 0
-10 -8 -7 -19z"/>
<path d="M4086 4282 c-3 -5 1 -9 9 -9 8 0 12 4 9 9 -3 4 -7 8 -9 8 -2 0 -6 -4
-9 -8z"/>
<path d="M6318 4302 c-10 -2 -18 -7 -18 -12 0 -4 8 -7 18 -6 11 1 17 -6 17
-19 0 -23 18 -24 23 -1 2 9 -2 16 -10 16 -11 0 -11 2 0 9 11 7 11 9 0 13 -7 2
-21 3 -30 0z"/>
<path d="M6135 4370 c-3 -5 -1 -10 4 -10 6 0 11 5 11 10 0 6 -2 10 -4 10 -3 0
-8 -4 -11 -10z"/>
<path d="M6160 4370 c0 -5 5 -10 11 -10 5 0 7 5 4 10 -3 6 -8 10 -11 10 -2 0
-4 -4 -4 -10z"/>
<path d="M6215 4350 c-3 -6 1 -7 9 -4 18 7 21 14 7 14 -6 0 -13 -4 -16 -10z"/>
<path d="M4563 4306 c0 -8 6 -12 14 -9 7 3 10 9 7 14 -8 14 -21 11 -21 -5z"/>
<path d="M4339 4287 c6 -8 9 -16 6 -19 -3 -2 2 -5 10 -5 19 0 19 5 1 23 -18
18 -32 19 -17 1z"/>
<path d="M4620 4215 c0 -8 4 -15 8 -15 5 0 9 7 9 15 0 8 -4 15 -9 15 -4 0 -8
-7 -8 -15z"/>
<path d="M4500 4216 c0 -2 7 -7 16 -10 8 -3 12 -2 9 4 -6 10 -25 14 -25 6z"/>
<path d="M4664 4213 c4 -7 3 -13 -3 -13 -6 0 -7 -8 -4 -17 4 -11 8 -12 11 -5
2 7 10 12 18 12 8 0 14 8 13 18 0 11 -2 12 -6 4 -4 -10 -8 -10 -21 0 -12 10
-14 10 -8 1z"/>
<path d="M4460 4206 c0 -2 15 -9 33 -15 29 -10 30 -9 13 4 -18 14 -46 20 -46
11z"/>
<path d="M4780 4152 c0 -10 12 -25 31 -40 13 -10 19 -9 29 3 8 9 9 15 4 14 -5
-1 -18 -1 -29 0 -15 1 -17 3 -7 10 10 6 9 10 -7 14 -12 3 -21 2 -21 -1z"/>
<path d="M4795 4100 c-3 -5 -1 -10 4 -10 6 0 11 5 11 10 0 6 -2 10 -4 10 -3 0
-8 -4 -11 -10z"/>
<path d="M5207 4259 c7 -7 15 -10 18 -7 3 3 -2 9 -12 12 -14 6 -15 5 -6 -5z"/>
<path d="M5191 4101 c-14 -4 -27 -13 -29 -21 -5 -13 -3 -13 13 0 10 8 16 10
13 5 -4 -6 0 -19 8 -30 8 -10 14 -13 14 -6 0 7 5 9 10 6 6 -3 10 -1 10 5 0 7
-7 10 -15 6 -9 -3 -15 0 -15 10 0 10 6 13 19 9 11 -3 21 0 24 8 5 14 -15 18
-52 8z"/>
<path d="M5285 4070 c3 -5 8 -10 11 -10 2 0 4 5 4 10 0 6 -5 10 -11 10 -5 0
-7 -4 -4 -10z"/>
<path d="M5240 4061 c0 -6 5 -11 10 -11 6 0 10 -5 10 -11 0 -6 -7 -9 -15 -6
-8 4 -17 2 -20 -4 -4 -5 -11 -6 -17 -3 -7 4 -8 2 -4 -5 9 -14 46 -5 63 16 9
12 14 11 33 -9 18 -19 19 -24 6 -26 -26 -5 -18 -22 10 -22 l25 0 -18 31 c-17
29 -53 58 -53 43 0 -3 -7 -1 -15 6 -10 9 -15 9 -15 1z"/>
<path d="M5133 4044 c-12 -12 -7 -24 9 -24 5 0 6 5 3 10 -3 6 -2 10 3 10 6 0
13 -8 17 -17 6 -17 7 -17 17 0 5 10 7 21 4 25 -11 11 -42 9 -53 -4z"/>
<path d="M1940 2963 c0 -5 6 -18 14 -29 13 -18 10 -57 -24 -326 -55 -429 -57
-438 -86 -469 l-25 -26 23 -6 c60 -14 427 -59 440 -54 13 5 38 117 38 172 0
19 -26 19 -33 1 -3 -8 -19 -22 -35 -30 -25 -13 -43 -14 -116 -4 -51 7 -86 16
-86 23 0 18 30 238 33 241 1 1 33 -3 72 -11 47 -9 74 -19 86 -34 33 -41 36
-35 55 117 5 43 4 52 -9 52 -9 0 -19 -5 -23 -11 -7 -11 -93 -7 -147 6 l-23 6
14 107 c7 59 15 108 17 111 2 2 41 -2 86 -9 66 -10 88 -19 116 -43 45 -39 53
-28 53 74 l0 76 -197 32 c-109 18 -208 35 -220 38 -13 3 -23 1 -23 -4z"/>
<path d="M8002 2927 c-79 -29 -144 -112 -168 -216 -18 -76 -17 -255 1 -349 21
-102 75 -211 126 -255 97 -83 263 -71 344 25 138 162 120 560 -31 728 -22 24
-57 51 -79 61 -46 21 -142 24 -193 6z m126 -123 c58 -40 92 -188 92 -401 0
-148 -11 -190 -54 -219 -60 -38 -120 15 -144 129 -30 135 -41 360 -21 430 19
71 75 98 127 61z"/>
<path d="M2470 2876 c0 -5 9 -19 20 -31 l20 -22 -20 -199 c-58 -556 -55 -536
-86 -561 -16 -12 -26 -24 -24 -27 6 -5 394 -46 438 -46 l30 0 13 85 c7 47 9
88 6 91 -3 4 -20 -5 -37 -20 -20 -16 -44 -26 -63 -26 -34 0 -147 17 -153 23
-2 2 10 151 26 332 28 300 33 332 52 352 12 13 20 24 17 26 -12 10 -239 31
-239 23z"/>
<path d="M7400 2845 c-47 -7 -87 -13 -89 -14 -3 0 6 -12 18 -25 21 -22 24 -43
46 -332 13 -170 26 -337 29 -370 4 -53 2 -64 -14 -79 -11 -10 -20 -24 -20 -32
0 -16 -7 -16 268 18 84 10 159 19 167 19 12 0 15 18 15 93 0 52 -3 97 -7 100
-3 4 -22 -11 -42 -32 -34 -37 -40 -39 -114 -46 -43 -4 -80 -5 -83 -3 -2 3 -17
152 -31 332 -22 261 -25 331 -15 346 27 44 18 46 -128 25z"/>
<path d="M7113 2816 c-57 -5 -103 -12 -103 -17 0 -4 10 -18 23 -31 22 -22 24
-37 42 -290 19 -291 18 -350 -12 -380 -46 -45 -130 -32 -169 27 -23 36 -60
601 -40 624 35 42 34 43 -90 36 -66 -4 -122 -10 -127 -12 -4 -2 3 -17 16 -32
22 -27 24 -41 36 -262 20 -376 30 -424 108 -488 128 -106 351 -66 414 74 24
52 24 126 -1 444 l-20 254 22 24 c12 13 18 26 12 31 -5 4 -55 3 -111 -2z"/>
<path d="M3187 2774 c-13 -88 -19 -164 -12 -164 4 0 20 14 35 30 25 26 35 30
83 30 31 0 57 -3 59 -7 2 -5 -5 -155 -16 -335 -20 -314 -22 -327 -44 -351
l-24 -25 49 -6 c106 -12 203 -17 203 -11 0 4 -9 19 -21 33 -17 22 -19 35 -14
87 4 47 35 557 35 588 0 11 63 9 99 -4 18 -6 38 -24 47 -40 8 -16 19 -27 24
-24 15 10 13 185 -2 189 -7 2 -103 11 -213 20 -110 10 -218 20 -241 23 l-41 5
-6 -38z"/>
<path d="M6315 2761 c-163 -42 -260 -260 -225 -510 27 -201 114 -324 248 -352
66 -13 150 1 176 30 11 12 25 16 41 13 l25 -4 0 95 c0 103 -11 128 -39 87 -9
-13 -32 -40 -52 -62 -31 -32 -43 -38 -76 -38 -108 0 -159 125 -151 367 5 141
21 198 66 233 51 41 129 15 178 -60 39 -59 50 -48 45 47 -4 109 -13 147 -34
151 -10 2 -17 -3 -17 -12 0 -13 -4 -13 -32 -1 -44 18 -116 25 -153 16z"/>
<path d="M3770 2754 c0 -4 8 -17 19 -28 18 -21 18 -29 0 -385 -18 -348 -20
-365 -41 -388 -12 -12 -19 -26 -15 -29 7 -7 248 -23 369 -24 l86 0 6 38 c23
161 18 178 -34 122 -27 -29 -30 -30 -124 -30 l-96 0 6 128 c4 70 7 127 8 128
0 1 33 -2 73 -6 59 -6 76 -11 92 -31 11 -13 22 -21 25 -18 3 3 9 46 12 96 7
92 -1 118 -26 88 -9 -11 -34 -15 -91 -15 l-79 0 0 58 c0 31 3 81 6 110 l7 52
66 0 c81 0 138 -15 153 -40 29 -45 50 39 32 127 l-6 30 -146 7 c-81 3 -182 9
-224 12 -43 4 -78 3 -78 -2z"/>
<path d="M4294 2731 c-2 -3 5 -15 17 -27 l22 -23 -11 -367 c-11 -347 -13 -368
-32 -389 -11 -12 -20 -24 -20 -28 0 -4 47 -7 105 -7 l106 0 -22 29 c-21 29
-21 34 -14 257 l7 227 68 -129 c38 -71 99 -187 137 -259 l68 -130 61 -3 61 -3
7 393 c6 383 7 393 28 415 12 13 19 25 17 27 -6 6 -199 10 -204 4 -3 -3 4 -13
15 -23 19 -17 20 -30 20 -229 l0 -211 -123 237 -122 237 -93 3 c-52 2 -96 1
-98 -1z"/>
<path d="M5204 2722 c-241 -2 -242 -2 -248 -25 -8 -30 -8 -177 0 -177 4 0 21
16 38 35 26 30 40 37 84 42 l52 6 0 -333 c0 -329 0 -334 -22 -357 -12 -13 -19
-25 -16 -28 3 -3 58 -4 123 -3 l117 3 -21 27 c-20 25 -21 36 -21 358 l0 332
57 -4 c50 -4 60 -9 85 -39 19 -22 31 -30 38 -23 13 13 -1 187 -15 188 -5 1
-119 0 -251 -2z"/>
<path d="M5610 2723 c0 -4 9 -16 19 -27 20 -21 19 -23 -64 -395 -49 -221 -90
-380 -99 -390 -9 -10 -16 -21 -16 -24 0 -4 45 -7 100 -7 55 0 100 3 100 8 0 4
-7 18 -16 30 -13 20 -14 32 -4 90 6 37 14 72 18 78 4 6 46 14 94 18 l86 7 21
-88 c18 -77 19 -89 6 -103 -8 -9 -15 -20 -15 -23 0 -4 56 -7 125 -7 69 0 125
3 125 7 0 4 -9 17 -21 29 -20 21 -77 231 -180 667 l-32 137 -124 0 c-67 0
-123 -3 -123 -7z m161 -354 c16 -74 32 -142 35 -151 5 -16 -3 -18 -66 -18 -63
0 -71 2 -66 18 2 9 17 79 32 154 15 76 29 136 31 134 2 -1 17 -63 34 -137z"/>
<path d="M8851 2294 c0 -11 3 -14 6 -6 3 7 2 16 -1 19 -3 4 -6 -2 -5 -13z"/>
<path d="M8871 2184 c0 -11 3 -14 6 -6 3 7 2 16 -1 19 -3 4 -6 -2 -5 -13z"/>
<path d="M1341 2094 c0 -11 3 -14 6 -6 3 7 2 16 -1 19 -3 4 -6 -2 -5 -13z"/>
<path d="M8921 1924 c0 -11 3 -14 6 -6 3 7 2 16 -1 19 -3 4 -6 -2 -5 -13z"/>
<path d="M8865 1838 l-40 -43 43 40 c23 21 42 40 42 42 0 8 -9 0 -45 -39z"/>
<path d="M8794 1784 c-18 -14 -18 -15 4 -4 12 6 22 13 22 15 0 8 -5 6 -26 -11z"/>
<path d="M2226 1725 c-9 -26 -7 -32 5 -12 6 10 9 21 6 23 -2 3 -7 -2 -11 -11z"/>
<path d="M8000 1731 c0 -6 4 -13 10 -16 6 -3 7 1 4 9 -7 18 -14 21 -14 7z"/>
<path d="M8655 1719 c-22 -10 -29 -16 -15 -13 28 7 80 33 65 33 -5 0 -28 -9
-50 -20z"/>
<path d="M7986 1693 c-6 -14 -5 -15 5 -6 7 7 10 15 7 18 -3 3 -9 -2 -12 -12z"/>
<path d="M8020 1691 c0 -6 4 -13 10 -16 6 -3 7 1 4 9 -7 18 -14 21 -14 7z"/>
<path d="M7966 1655 c-9 -26 -7 -32 5 -12 6 10 9 21 6 23 -2 3 -7 -2 -11 -11z"/>
<path d="M8458 1653 c7 -3 16 -2 19 1 4 3 -2 6 -13 5 -11 0 -14 -3 -6 -6z"/>
<path d="M8390 1640 c-20 -6 -21 -8 -5 -8 11 0 29 3 40 8 25 11 -1 11 -35 0z"/>
<path d="M8278 1613 c7 -3 16 -2 19 1 4 3 -2 6 -13 5 -11 0 -14 -3 -6 -6z"/>
<path d="M8218 1603 c6 -2 18 -2 25 0 6 3 1 5 -13 5 -14 0 -19 -2 -12 -5z"/>
<path d="M8158 1593 c6 -2 18 -2 25 0 6 3 1 5 -13 5 -14 0 -19 -2 -12 -5z"/>
<path d="M8108 1583 c7 -3 16 -2 19 1 4 3 -2 6 -13 5 -11 0 -14 -3 -6 -6z"/>
<path d="M7920 1570 c-9 -6 -10 -10 -3 -10 6 0 15 5 18 10 8 12 4 12 -15 0z"/>
<path d="M2328 1563 c7 -3 16 -2 19 1 4 3 -2 6 -13 5 -11 0 -14 -3 -6 -6z"/>
<path d="M7858 1553 c6 -2 18 -2 25 0 6 3 1 5 -13 5 -14 0 -19 -2 -12 -5z"/>
<path d="M7793 1543 c9 -2 23 -2 30 0 6 3 -1 5 -18 5 -16 0 -22 -2 -12 -5z"/>
<path d="M2518 1533 c7 -3 16 -2 19 1 4 3 -2 6 -13 5 -11 0 -14 -3 -6 -6z"/>
<path d="M7733 1533 c9 -2 23 -2 30 0 6 3 -1 5 -18 5 -16 0 -22 -2 -12 -5z"/>
<path d="M7663 1523 c9 -2 23 -2 30 0 6 3 -1 5 -18 5 -16 0 -22 -2 -12 -5z"/>
<path d="M7593 1513 c9 -2 25 -2 35 0 9 3 1 5 -18 5 -19 0 -27 -2 -17 -5z"/>
<path d="M7548 1503 c7 -3 16 -2 19 1 4 3 -2 6 -13 5 -11 0 -14 -3 -6 -6z"/>
<path d="M2818 1493 c7 -3 16 -2 19 1 4 3 -2 6 -13 5 -11 0 -14 -3 -6 -6z"/>
<path d="M7438 1493 c6 -2 18 -2 25 0 6 3 1 5 -13 5 -14 0 -19 -2 -12 -5z"/>
<path d="M2898 1483 c6 -2 18 -2 25 0 6 3 1 5 -13 5 -14 0 -19 -2 -12 -5z"/>
<path d="M7358 1483 c12 -2 30 -2 40 0 9 3 -1 5 -23 4 -22 0 -30 -2 -17 -4z"/>
<path d="M3018 1473 c7 -3 16 -2 19 1 4 3 -2 6 -13 5 -11 0 -14 -3 -6 -6z"/>
<path d="M7273 1473 c9 -2 25 -2 35 0 9 3 1 5 -18 5 -19 0 -27 -2 -17 -5z"/>
<path d="M3098 1463 c6 -2 18 -2 25 0 6 3 1 5 -13 5 -14 0 -19 -2 -12 -5z"/>
<path d="M7188 1463 c12 -2 30 -2 40 0 9 3 -1 5 -23 4 -22 0 -30 -2 -17 -4z"/>
<path d="M3203 1453 c9 -2 23 -2 30 0 6 3 -1 5 -18 5 -16 0 -22 -2 -12 -5z"/>
<path d="M7083 1453 c15 -2 37 -2 50 0 12 2 0 4 -28 4 -27 0 -38 -2 -22 -4z"/>
<path d="M3318 1443 c12 -2 30 -2 40 0 9 3 -1 5 -23 4 -22 0 -30 -2 -17 -4z"/>
<path d="M6978 1443 c12 -2 30 -2 40 0 9 3 -1 5 -23 4 -22 0 -30 -2 -17 -4z"/>
<path d="M3438 1433 c12 -2 32 -2 45 0 12 2 2 4 -23 4 -25 0 -35 -2 -22 -4z"/>
<path d="M6853 1433 c15 -2 37 -2 50 0 12 2 0 4 -28 4 -27 0 -38 -2 -22 -4z"/>
<path d="M3553 1423 c15 -2 39 -2 55 0 15 2 2 4 -28 4 -30 0 -43 -2 -27 -4z"/>
<path d="M6718 1423 c12 -2 32 -2 45 0 12 2 2 4 -23 4 -25 0 -35 -2 -22 -4z"/>
<path d="M3697 1413 c18 -2 50 -2 70 0 21 2 7 4 -32 4 -38 0 -55 -2 -38 -4z"/>
<path d="M6563 1413 c20 -2 54 -2 75 0 20 2 3 4 -38 4 -41 0 -58 -2 -37 -4z"/>
<path d="M3877 1403 c18 -2 50 -2 70 0 21 2 7 4 -32 4 -38 0 -55 -2 -38 -4z"/>
<path d="M6398 1403 c23 -2 59 -2 80 0 20 2 1 4 -43 4 -44 0 -61 -2 -37 -4z"/>
<path d="M4078 1393 c23 -2 61 -2 85 0 23 2 4 4 -43 4 -47 0 -66 -2 -42 -4z"/>
<path d="M6203 1393 c20 -2 54 -2 75 0 20 2 3 4 -38 4 -41 0 -58 -2 -37 -4z"/>
<path d="M4328 1383 c23 -2 61 -2 85 0 23 2 4 4 -43 4 -47 0 -66 -2 -42 -4z"/>
<path d="M5948 1383 c28 -2 76 -2 105 0 28 2 5 3 -53 3 -58 0 -81 -1 -52 -3z"/>
<path d="M4563 1373 c9 -2 23 -2 30 0 6 3 -1 5 -18 5 -16 0 -22 -2 -12 -5z"/>
<path d="M4683 1373 c43 -2 110 -2 150 0 40 1 5 3 -78 3 -82 0 -115 -2 -72 -3z"/>
<path d="M5018 1373 c7 -3 16 -2 19 1 4 3 -2 6 -13 5 -11 0 -14 -3 -6 -6z"/>
<path d="M5403 1373 c9 -2 23 -2 30 0 6 3 -1 5 -18 5 -16 0 -22 -2 -12 -5z"/>
<path d="M5533 1373 c48 -2 125 -2 170 0 45 1 6 3 -88 3 -93 0 -130 -2 -82 -3z"/>
</g>
</svg>
